<svg version="1.1" viewBox="0.0 0.0 960.0 540.0" fill="none" stroke="none" stroke-linecap="square" stroke-miterlimit="10" xmlns:xlink="http://www.w3.org/1999/xlink" xmlns="http://www.w3.org/2000/svg"><clipPath id="g598de2aef0_2_90.0"><path d="m0 0l960.0 0l0 540.0l-960.0 0l0 -540.0z" clip-rule="nonzero"/></clipPath><g clip-path="url(#g598de2aef0_2_90.0)"><path fill="#8d2c3d" d="m0 0l960.0 0l0 540.0l-960.0 0z" fill-rule="evenodd"/><path fill="#000000" fill-opacity="0.0" d="m38.343834 196.88924l894.5512 0l0 146.22151l-894.5512 0z" fill-rule="evenodd"/><path fill="#ffffff" d="m51.000084 225.61423q0 0.984375 0.09375 2.046875q0.09375 1.0625 0.265625 2.125q0.1875 1.0625 0.46875 2.078125q0.28125 1.03125 0.640625 1.9375q0.078125 0.1875 0.078125 0.359375q0 0.21875 -0.125 0.359375q-0.125 0.140625 -0.28125 0.234375l-1.078125 0.609375q-0.5625 -1.140625 -0.953125 -2.359375q-0.390625 -1.21875 -0.65625 -2.4375q-0.25 -1.234375 -0.375 -2.4375q-0.109375 -1.203125 -0.109375 -2.3125q0 -1.859375 0.203125 -3.625q0.21875 -1.765625 0.78125 -3.5625q0.578125 -1.796875 1.5625 -3.703125q0.984375 -1.921875 2.546875 -4.078125l0.9375 0.625q0.109375 0.0625 0.1875 0.1875q0.09375 0.109375 0.09375 0.265625q0 0.203125 -0.1875 0.484375q-1.0 1.53125 -1.765625 3.046875q-0.75 1.5 -1.265625 3.109375q-0.515625 1.59375 -0.796875 3.34375q-0.265625 1.734375 -0.265625 3.703125zm4.6539764 5.875l1.609375 -13.515625l1.1875 0q0.796875 0 0.796875 0.796875l-0.203125 2.609375q1.078125 -1.78125 2.421875 -2.6875q1.359375 -0.90625 2.8125 -0.90625q1.515625 0 2.34375 1.015625q0.828125 1.015625 0.828125 2.953125q0 0.265625 -0.015625 0.546875q0 0.28125 -0.046875 0.59375l-1.015625 8.59375l-2.375 0l1.015625 -8.59375q0.03125 -0.265625 0.046875 -0.515625q0.015625 -0.25 0.015625 -0.46875q0 -1.09375 -0.40625 -1.625q-0.40625 -0.53125 -1.265625 -0.53125q-0.640625 0 -1.296875 0.359375q-0.65625 0.34375 -1.28125 0.984375q-0.609375 0.625 -1.140625 1.53125q-0.515625 0.890625 -0.890625 2.0l-0.78125 6.859375l-2.359375 0zm13.661758 -1.46875q0 -0.34375 0.125 -0.640625q0.140625 -0.3125 0.359375 -0.53125q0.234375 -0.234375 0.53125 -0.359375q0.296875 -0.140625 0.65625 -0.140625q0.34375 0 0.640625 0.140625q0.3125 0.125 0.53125 0.359375q0.234375 0.21875 0.359375 0.53125q0.140625 0.296875 0.140625 0.640625q0 0.359375 -0.140625 0.671875q-0.125 0.296875 -0.359375 0.53125q-0.21875 0.21875 -0.53125 0.34375q-0.296875 0.125 -0.640625 0.125q-0.359375 0 -0.65625 -0.125q-0.296875 -0.125 -0.53125 -0.34375q-0.21875 -0.234375 -0.359375 -0.53125q-0.125 -0.3125 -0.125 -0.671875zm9.242554 -9.421875q0 -0.96875 -0.09375 -2.03125q-0.09375 -1.078125 -0.296875 -2.140625q-0.1875 -1.0625 -0.46875 -2.078125q-0.265625 -1.03125 -0.625 -1.9375q-0.078125 -0.1875 -0.078125 -0.34375q0 -0.21875 0.125 -0.34375q0.125 -0.140625 0.28125 -0.25l1.09375 -0.625q0.546875 1.15625 0.9375 2.375q0.390625 1.203125 0.640625 2.4375q0.25 1.21875 0.375 2.421875q0.125 1.203125 0.125 2.3125q0 1.875 -0.21875 3.640625q-0.21875 1.765625 -0.78125 3.5625q-0.546875 1.796875 -1.546875 3.703125q-0.984375 1.90625 -2.546875 4.0625l-0.9375 -0.609375q-0.109375 -0.078125 -0.1875 -0.1875q-0.078125 -0.109375 -0.078125 -0.25q0 -0.234375 0.1875 -0.515625q0.96875 -1.53125 1.734375 -3.078125q0.765625 -1.546875 1.28125 -3.171875q0.53125 -1.640625 0.796875 -3.359375q0.28125 -1.71875 0.28125 -3.59375z" fill-rule="nonzero"/><path fill="#ffffff" d="m53.375084 263.70798q-1.59375 0 -2.453125 -0.890625q-0.859375 -0.90625 -0.859375 -2.578125l0 -8.265625l-1.625 0q-0.21875 0 -0.359375 -0.125q-0.140625 -0.125 -0.140625 -0.390625l0 -0.953125l2.203125 -0.28125l0.546875 -4.171875q0.03125 -0.203125 0.171875 -0.328125q0.15625 -0.125 0.375 -0.125l1.203125 0l0 4.65625l3.859375 0l0 1.71875l-3.859375 0l0 8.109375q0 0.84375 0.40625 1.265625q0.421875 0.40625 1.078125 0.40625q0.359375 0 0.625 -0.09375q0.28125 -0.109375 0.484375 -0.21875q0.203125 -0.125 0.34375 -0.21875q0.140625 -0.109375 0.25 -0.109375q0.1875 0 0.328125 0.234375l0.6875 1.125q-0.609375 0.578125 -1.484375 0.90625q-0.859375 0.328125 -1.78125 0.328125zm5.864624 -0.21875l0 -19.625l2.359375 0l0 7.9375q0.875 -0.921875 1.921875 -1.46875q1.0625 -0.5625 2.421875 -0.5625q1.109375 0 1.953125 0.375q0.859375 0.359375 1.421875 1.03125q0.5625 0.671875 0.859375 1.625q0.296875 0.9375 0.296875 2.09375l0 8.59375l-2.375 0l0 -8.59375q0 -1.53125 -0.703125 -2.375q-0.703125 -0.859375 -2.140625 -0.859375q-1.046875 0 -1.96875 0.515625q-0.90625 0.5 -1.6875 1.375l0 9.9375l-2.359375 0zm20.164566 -13.71875q1.203125 0 2.234375 0.40625q1.03125 0.40625 1.765625 1.171875q0.75 0.765625 1.171875 1.90625q0.421875 1.125 0.421875 2.5625q0 0.546875 -0.125 0.734375q-0.125 0.1875 -0.453125 0.1875l-8.984375 0q0.03125 1.28125 0.34375 2.234375q0.328125 0.9375 0.890625 1.578125q0.5625 0.625 1.328125 0.953125q0.765625 0.3125 1.734375 0.3125q0.890625 0 1.53125 -0.203125q0.65625 -0.21875 1.125 -0.453125q0.46875 -0.25 0.78125 -0.453125q0.3125 -0.203125 0.53125 -0.203125q0.296875 0 0.453125 0.21875l0.671875 0.875q-0.4375 0.53125 -1.0625 0.921875q-0.609375 0.390625 -1.3125 0.65625q-0.6875 0.25 -1.4375 0.375q-0.75 0.125 -1.484375 0.125q-1.390625 0 -2.578125 -0.46875q-1.171875 -0.484375 -2.03125 -1.390625q-0.859375 -0.90625 -1.34375 -2.25q-0.484375 -1.359375 -0.484375 -3.109375q0 -1.40625 0.4375 -2.625q0.4375 -1.234375 1.25 -2.125q0.8125 -0.90625 1.984375 -1.421875q1.171875 -0.515625 2.640625 -0.515625zm0.046875 1.75q-1.71875 0 -2.703125 1.0q-0.984375 0.984375 -1.234375 2.75l7.34375 0q0 -0.828125 -0.234375 -1.515625q-0.21875 -0.6875 -0.65625 -1.1875q-0.4375 -0.5 -1.078125 -0.765625q-0.625 -0.28125 -1.4375 -0.28125zm13.721832 16.546875l0 -18.078125l1.40625 0q0.5 0 0.640625 0.484375l0.203125 1.609375q0.859375 -1.0625 1.96875 -1.6875q1.125 -0.640625 2.578125 -0.640625q1.15625 0 2.09375 0.453125q0.953125 0.4375 1.609375 1.3125q0.671875 0.859375 1.03125 2.15625q0.359375 1.296875 0.359375 2.96875q0 1.5 -0.40625 2.796875q-0.390625 1.28125 -1.140625 2.21875q-0.734375 0.9375 -1.828125 1.484375q-1.078125 0.53125 -2.4375 0.53125q-1.265625 0 -2.15625 -0.40625q-0.875 -0.421875 -1.5625 -1.1875l0 5.984375l-2.359375 0zm6.0 -16.40625q-1.15625 0 -2.03125 0.546875q-0.875 0.53125 -1.609375 1.5l0 6.53125q0.65625 0.875 1.4375 1.234375q0.78125 0.359375 1.734375 0.359375q1.890625 0 2.890625 -1.34375q1.015625 -1.34375 1.015625 -3.84375q0 -1.3125 -0.234375 -2.25q-0.234375 -0.953125 -0.671875 -1.5625q-0.4375 -0.609375 -1.078125 -0.890625q-0.640625 -0.28125 -1.453125 -0.28125zm8.714203 11.828125l0 -13.5l1.359375 0q0.375 0 0.515625 0.15625q0.15625 0.140625 0.203125 0.5l0.171875 2.09375q0.6875 -1.40625 1.703125 -2.1875q1.03125 -0.796875 2.390625 -0.796875q0.5625 0 1.015625 0.125q0.453125 0.125 0.84375 0.34375l-0.3125 1.78125q-0.09375 0.328125 -0.40625 0.328125q-0.1875 0 -0.578125 -0.125q-0.375 -0.125 -1.078125 -0.125q-1.234375 0 -2.078125 0.71875q-0.828125 0.71875 -1.390625 2.09375l0 8.59375l-2.359375 0zm16.195557 -13.71875q1.484375 0 2.671875 0.5q1.203125 0.484375 2.0312424 1.390625q0.828125 0.90625 1.265625 2.203125q0.453125 1.28125 0.453125 2.875q0 1.59375 -0.453125 2.875q-0.4375 1.28125 -1.265625 2.1875q-0.8281174 0.90625 -2.0312424 1.390625q-1.1875 0.484375 -2.671875 0.484375q-1.46875 0 -2.671875 -0.484375q-1.1875 -0.484375 -2.03125 -1.390625q-0.84375 -0.90625 -1.296875 -2.1875q-0.453125 -1.28125 -0.453125 -2.875q0 -1.59375 0.453125 -2.875q0.453125 -1.296875 1.296875 -2.203125q0.84375 -0.90625 2.03125 -1.390625q1.203125 -0.5 2.671875 -0.5zm0 12.046875q2.0 0 2.984375 -1.328125q0.9843674 -1.34375 0.9843674 -3.75q0 -2.40625 -0.9843674 -3.75q-0.984375 -1.34375 -2.984375 -1.34375q-1.015625 0 -1.765625 0.34375q-0.734375 0.34375 -1.234375 1.0q-0.5 0.65625 -0.75 1.609375q-0.25 0.953125 -0.25 2.140625q0 1.203125 0.25 2.15625q0.25 0.9375 0.75 1.59375q0.5 0.640625 1.234375 0.984375q0.75 0.34375 1.765625 0.34375zm18.570808 -9.4375q-0.109375 0.15625 -0.21875 0.234375q-0.109375 0.078125 -0.296875 0.078125q-0.203125 0 -0.4375 -0.15625q-0.234375 -0.171875 -0.59375 -0.375q-0.359375 -0.203125 -0.875 -0.359375q-0.515625 -0.171875 -1.25 -0.171875q-1.0 0 -1.765625 0.359375q-0.75 0.34375 -1.265625 1.015625q-0.515625 0.65625 -0.78125 1.609375q-0.25 0.9375 -0.25 2.125q0 1.21875 0.28125 2.171875q0.28125 0.953125 0.78125 1.609375q0.515625 0.640625 1.234375 0.984375q0.734375 0.328125 1.640625 0.328125q0.859375 0 1.421875 -0.203125q0.5625 -0.203125 0.9375 -0.453125q0.375 -0.265625 0.609375 -0.46875q0.234375 -0.203125 0.484375 -0.203125q0.296875 0 0.453125 0.21875l0.65625 0.875q-0.875 1.078125 -2.203125 1.578125q-1.3125 0.5 -2.78125 0.5q-1.265625 0 -2.359375 -0.46875q-1.078125 -0.46875 -1.875 -1.34375q-0.796875 -0.890625 -1.265625 -2.1875q-0.453125 -1.296875 -0.453125 -2.9375q0 -1.515625 0.421875 -2.796875q0.421875 -1.28125 1.21875 -2.203125q0.8125 -0.921875 2.0 -1.4375q1.1875 -0.53125 2.71875 -0.53125q1.40625 0 2.5 0.46875q1.09375 0.453125 1.9375 1.296875l-0.625 0.84375zm8.58905 -2.609375q1.203125 0 2.234375 0.40625q1.03125 0.40625 1.765625 1.171875q0.75 0.765625 1.171875 1.90625q0.421875 1.125 0.421875 2.5625q0 0.546875 -0.125 0.734375q-0.125 0.1875 -0.453125 0.1875l-8.984375 0q0.03125 1.28125 0.34375 2.234375q0.328125 0.9375 0.890625 1.578125q0.5625 0.625 1.328125 0.953125q0.765625 0.3125 1.734375 0.3125q0.890625 0 1.53125 -0.203125q0.65625 -0.21875 1.125 -0.453125q0.46875 -0.25 0.78125 -0.453125q0.3125 -0.203125 0.53125 -0.203125q0.296875 0 0.453125 0.21875l0.671875 0.875q-0.4375 0.53125 -1.0625 0.921875q-0.609375 0.390625 -1.3125 0.65625q-0.6875 0.25 -1.4375 0.375q-0.75 0.125 -1.484375 0.125q-1.390625 0 -2.578125 -0.46875q-1.171875 -0.484375 -2.03125 -1.390625q-0.859375 -0.90625 -1.34375 -2.25q-0.484375 -1.359375 -0.484375 -3.109375q0 -1.40625 0.4375 -2.625q0.4375 -1.234375 1.25 -2.125q0.8125 -0.90625 1.984375 -1.421875q1.171875 -0.515625 2.640625 -0.515625zm0.046875 1.75q-1.71875 0 -2.703125 1.0q-0.984375 0.984375 -1.234375 2.75l7.34375 0q0 -0.828125 -0.234375 -1.515625q-0.21875 -0.6875 -0.65625 -1.1875q-0.4375 -0.5 -1.078125 -0.765625q-0.625 -0.28125 -1.4375 -0.28125zm16.295944 0.6875q-0.15625 0.296875 -0.484375 0.296875q-0.203125 0 -0.453125 -0.140625q-0.25 -0.15625 -0.625 -0.328125q-0.359375 -0.1875 -0.875 -0.328125q-0.5 -0.15625 -1.203125 -0.15625q-0.59375 0 -1.078125 0.15625q-0.46875 0.140625 -0.8125 0.40625q-0.34375 0.265625 -0.53125 0.625q-0.171875 0.359375 -0.171875 0.765625q0 0.515625 0.296875 0.875q0.296875 0.34375 0.796875 0.59375q0.5 0.25 1.125 0.453125q0.625 0.1875 1.28125 0.40625q0.65625 0.21875 1.28125 0.484375q0.625 0.265625 1.125 0.671875q0.5 0.390625 0.796875 0.984375q0.296875 0.578125 0.296875 1.390625q0 0.921875 -0.34375 1.71875q-0.328125 0.796875 -0.984375 1.375q-0.640625 0.578125 -1.59375 0.921875q-0.9375 0.328125 -2.1875 0.328125q-1.40625 0 -2.5625 -0.453125q-1.140625 -0.46875 -1.9375 -1.1875l0.5625 -0.90625q0.109375 -0.171875 0.25 -0.265625q0.140625 -0.09375 0.390625 -0.09375q0.234375 0 0.5 0.1875q0.265625 0.1875 0.640625 0.421875q0.390625 0.21875 0.921875 0.40625q0.546875 0.171875 1.359375 0.171875q0.6875 0 1.203125 -0.171875q0.53125 -0.1875 0.875 -0.484375q0.34375 -0.3125 0.5 -0.703125q0.171875 -0.40625 0.171875 -0.859375q0 -0.5625 -0.296875 -0.921875q-0.296875 -0.375 -0.796875 -0.625q-0.484375 -0.265625 -1.125 -0.453125q-0.625 -0.203125 -1.296875 -0.40625q-0.65625 -0.21875 -1.296875 -0.484375q-0.625 -0.28125 -1.125 -0.6875q-0.484375 -0.421875 -0.78125 -1.03125q-0.296875 -0.609375 -0.296875 -1.46875q0 -0.765625 0.3125 -1.484375q0.328125 -0.71875 0.9375 -1.25q0.609375 -0.546875 1.5 -0.859375q0.90625 -0.328125 2.046875 -0.328125q1.328125 0 2.390625 0.421875q1.0625 0.421875 1.828125 1.15625l-0.53125 0.859375zm11.568771 0q-0.15625 0.296875 -0.484375 0.296875q-0.203125 0 -0.453125 -0.140625q-0.25 -0.15625 -0.625 -0.328125q-0.359375 -0.1875 -0.875 -0.328125q-0.5 -0.15625 -1.203125 -0.15625q-0.59375 0 -1.078125 0.15625q-0.46875 0.140625 -0.8125 0.40625q-0.34375 0.265625 -0.53125 0.625q-0.171875 0.359375 -0.171875 0.765625q0 0.515625 0.296875 0.875q0.296875 0.34375 0.796875 0.59375q0.5 0.25 1.125 0.453125q0.625 0.1875 1.28125 0.40625q0.65625 0.21875 1.28125 0.484375q0.625 0.265625 1.125 0.671875q0.5 0.390625 0.796875 0.984375q0.296875 0.578125 0.296875 1.390625q0 0.921875 -0.34375 1.71875q-0.328125 0.796875 -0.984375 1.375q-0.640625 0.578125 -1.59375 0.921875q-0.9375 0.328125 -2.1875 0.328125q-1.40625 0 -2.5625 -0.453125q-1.140625 -0.46875 -1.9375 -1.1875l0.5625 -0.90625q0.109375 -0.171875 0.25 -0.265625q0.140625 -0.09375 0.390625 -0.09375q0.234375 0 0.5 0.1875q0.265625 0.1875 0.640625 0.421875q0.390625 0.21875 0.921875 0.40625q0.546875 0.171875 1.359375 0.171875q0.6875 0 1.203125 -0.171875q0.53125 -0.1875 0.875 -0.484375q0.34375 -0.3125 0.5 -0.703125q0.171875 -0.40625 0.171875 -0.859375q0 -0.5625 -0.296875 -0.921875q-0.296875 -0.375 -0.796875 -0.625q-0.484375 -0.265625 -1.125 -0.453125q-0.625 -0.203125 -1.296875 -0.40625q-0.65625 -0.21875 -1.296875 -0.484375q-0.625 -0.28125 -1.125 -0.6875q-0.484375 -0.421875 -0.78125 -1.03125q-0.296875 -0.609375 -0.296875 -1.46875q0 -0.765625 0.3125 -1.484375q0.328125 -0.71875 0.9375 -1.25q0.609375 -0.546875 1.5 -0.859375q0.90625 -0.328125 2.046875 -0.328125q1.328125 0 2.390625 0.421875q1.0625 0.421875 1.828125 1.15625l-0.53125 0.859375zm7.2290344 -2.21875l1.859375 0q0.296875 0 0.484375 0.15625q0.1875 0.140625 0.25 0.328125l2.59375 8.703125q0.109375 0.46875 0.203125 0.921875q0.09375 0.4375 0.15625 0.890625q0.109375 -0.453125 0.234375 -0.890625q0.140625 -0.453125 0.28125 -0.921875l2.859375 -8.75q0.0625 -0.203125 0.21875 -0.328125q0.171875 -0.140625 0.421875 -0.140625l1.03125 0q0.265625 0 0.4375 0.140625q0.171875 0.125 0.25 0.328125l2.78125 8.75q0.140625 0.453125 0.25 0.90625q0.125 0.453125 0.234375 0.90625q0.0625 -0.453125 0.15625 -0.921875q0.109375 -0.484375 0.234375 -0.890625l2.640625 -8.703125q0.0625 -0.203125 0.25 -0.34375q0.1875 -0.140625 0.4375 -0.140625l1.796875 0l-4.375 13.5l-1.875 0q-0.359375 0 -0.484375 -0.453125l-2.984375 -9.15625q-0.109375 -0.3125 -0.171875 -0.625q-0.0625 -0.3125 -0.140625 -0.609375q-0.0625 0.296875 -0.140625 0.625q-0.0625 0.3125 -0.15625 0.625l-3.03125 9.140625q-0.140625 0.453125 -0.546875 0.453125l-1.78125 0l-4.375 -13.5zm22.184235 13.5l0 -19.625l2.359375 0l0 7.9375q0.875 -0.921875 1.921875 -1.46875q1.0625 -0.5625 2.421875 -0.5625q1.109375 0 1.953125 0.375q0.859375 0.359375 1.421875 1.03125q0.5625 0.671875 0.859375 1.625q0.296875 0.9375 0.296875 2.09375l0 8.59375l-2.375 0l0 -8.59375q0 -1.53125 -0.703125 -2.375q-0.703125 -0.859375 -2.140625 -0.859375q-1.046875 0 -1.96875 0.515625q-0.90625 0.5 -1.6875 1.375l0 9.9375l-2.359375 0zm20.164566 -13.71875q1.203125 0 2.234375 0.40625q1.03125 0.40625 1.765625 1.171875q0.75 0.765625 1.171875 1.90625q0.421875 1.125 0.421875 2.5625q0 0.546875 -0.125 0.734375q-0.125 0.1875 -0.453125 0.1875l-8.984375 0q0.03125 1.28125 0.34375 2.234375q0.328125 0.9375 0.890625 1.578125q0.5625 0.625 1.328125 0.953125q0.765625 0.3125 1.734375 0.3125q0.890625 0 1.53125 -0.203125q0.65625 -0.21875 1.125 -0.453125q0.46875 -0.25 0.78125 -0.453125q0.3125 -0.203125 0.53125 -0.203125q0.296875 0 0.453125 0.21875l0.671875 0.875q-0.4375 0.53125 -1.0625 0.921875q-0.609375 0.390625 -1.3125 0.65625q-0.6875 0.25 -1.4375 0.375q-0.75 0.125 -1.484375 0.125q-1.390625 0 -2.578125 -0.46875q-1.171875 -0.484375 -2.03125 -1.390625q-0.859375 -0.90625 -1.34375 -2.25q-0.484375 -1.359375 -0.484375 -3.109375q0 -1.40625 0.4375 -2.625q0.4375 -1.234375 1.25 -2.125q0.8125 -0.90625 1.984375 -1.421875q1.171875 -0.515625 2.640625 -0.515625zm0.046875 1.75q-1.71875 0 -2.703125 1.0q-0.984375 0.984375 -1.234375 2.75l7.34375 0q0 -0.828125 -0.234375 -1.515625q-0.21875 -0.6875 -0.65625 -1.1875q-0.4375 -0.5 -1.078125 -0.765625q-0.625 -0.28125 -1.4375 -0.28125zm8.577194 11.96875l0 -13.5l1.359375 0q0.375 0 0.515625 0.15625q0.15625 0.140625 0.203125 0.5l0.171875 2.09375q0.6875 -1.40625 1.703125 -2.1875q1.03125 -0.796875 2.390625 -0.796875q0.5625 0 1.015625 0.125q0.453125 0.125 0.84375 0.34375l-0.3125 1.78125q-0.09375 0.328125 -0.40625 0.328125q-0.1875 0 -0.578125 -0.125q-0.375 -0.125 -1.078125 -0.125q-1.234375 0 -2.078125 0.71875q-0.828125 0.71875 -1.390625 2.09375l0 8.59375l-2.359375 0zm16.086182 -13.71875q1.203125 0 2.234375 0.40625q1.0312653 0.40625 1.7656403 1.171875q0.75 0.765625 1.171875 1.90625q0.421875 1.125 0.421875 2.5625q0 0.546875 -0.125 0.734375q-0.125 0.1875 -0.453125 0.1875l-8.98439 0q0.03125 1.28125 0.34375 2.234375q0.328125 0.9375 0.890625 1.578125q0.5625 0.625 1.328125 0.953125q0.765625 0.3125 1.734375 0.3125q0.890625 0 1.53125 -0.203125q0.65625 -0.21875 1.1250153 -0.453125q0.46875 -0.25 0.78125 -0.453125q0.3125 -0.203125 0.53125 -0.203125q0.296875 0 0.453125 0.21875l0.671875 0.875q-0.4375 0.53125 -1.0625 0.921875q-0.609375 0.390625 -1.3125 0.65625q-0.68751526 0.25 -1.4375153 0.375q-0.75 0.125 -1.484375 0.125q-1.390625 0 -2.578125 -0.46875q-1.171875 -0.484375 -2.03125 -1.390625q-0.859375 -0.90625 -1.34375 -2.25q-0.484375 -1.359375 -0.484375 -3.109375q0 -1.40625 0.4375 -2.625q0.4375 -1.234375 1.25 -2.125q0.8125 -0.90625 1.984375 -1.421875q1.171875 -0.515625 2.640625 -0.515625zm0.046875 1.75q-1.71875 0 -2.703125 1.0q-0.984375 0.984375 -1.234375 2.75l7.3437653 0q0 -0.828125 -0.234375 -1.515625q-0.21875 -0.6875 -0.65625 -1.1875q-0.43751526 -0.5 -1.0781403 -0.765625q-0.625 -0.28125 -1.4375 -0.28125zm22.924973 0.859375q-0.109375 0.15625 -0.21875 0.234375q-0.109375 0.078125 -0.296875 0.078125q-0.203125 0 -0.4375 -0.15625q-0.234375 -0.171875 -0.59375 -0.375q-0.359375 -0.203125 -0.875 -0.359375q-0.515625 -0.171875 -1.25 -0.171875q-1.0 0 -1.765625 0.359375q-0.75 0.34375 -1.265625 1.015625q-0.515625 0.65625 -0.78125 1.609375q-0.25 0.9375 -0.25 2.125q0 1.21875 0.28125 2.171875q0.28125 0.953125 0.78125 1.609375q0.515625 0.640625 1.234375 0.984375q0.734375 0.328125 1.640625 0.328125q0.859375 0 1.421875 -0.203125q0.5625 -0.203125 0.9375 -0.453125q0.375 -0.265625 0.609375 -0.46875q0.234375 -0.203125 0.484375 -0.203125q0.296875 0 0.453125 0.21875l0.65625 0.875q-0.875 1.078125 -2.203125 1.578125q-1.3125 0.5 -2.78125 0.5q-1.265625 0 -2.359375 -0.46875q-1.078125 -0.46875 -1.875 -1.34375q-0.796875 -0.890625 -1.265625 -2.1875q-0.453125 -1.296875 -0.453125 -2.9375q0 -1.515625 0.421875 -2.796875q0.421875 -1.28125 1.21875 -2.203125q0.8125 -0.921875 2.0 -1.4375q1.1875 -0.53125 2.71875 -0.53125q1.40625 0 2.5 0.46875q1.09375 0.453125 1.9375 1.296875l-0.625 0.84375zm3.2453003 11.109375l0 -13.5l1.359375 0q0.375 0 0.515625 0.15625q0.15625 0.140625 0.203125 0.5l0.171875 2.09375q0.6875 -1.40625 1.703125 -2.1875q1.03125 -0.796875 2.390625 -0.796875q0.5625 0 1.015625 0.125q0.453125 0.125 0.84375 0.34375l-0.3125 1.78125q-0.09375 0.328125 -0.40625 0.328125q-0.1875 0 -0.578125 -0.125q-0.375 -0.125 -1.078125 -0.125q-1.234375 0 -2.078125 0.71875q-0.828125 0.71875 -1.390625 2.09375l0 8.59375l-2.359375 0zm16.195557 -13.71875q1.484375 0 2.671875 0.5q1.203125 0.484375 2.03125 1.390625q0.828125 0.90625 1.265625 2.203125q0.453125 1.28125 0.453125 2.875q0 1.59375 -0.453125 2.875q-0.4375 1.28125 -1.265625 2.1875q-0.828125 0.90625 -2.03125 1.390625q-1.1875 0.484375 -2.671875 0.484375q-1.46875 0 -2.671875 -0.484375q-1.1875 -0.484375 -2.03125 -1.390625q-0.84375 -0.90625 -1.296875 -2.1875q-0.453125 -1.28125 -0.453125 -2.875q0 -1.59375 0.453125 -2.875q0.453125 -1.296875 1.296875 -2.203125q0.84375 -0.90625 2.03125 -1.390625q1.203125 -0.5 2.671875 -0.5zm0 12.046875q2.0 0 2.984375 -1.328125q0.984375 -1.34375 0.984375 -3.75q0 -2.40625 -0.984375 -3.75q-0.984375 -1.34375 -2.984375 -1.34375q-1.015625 0 -1.765625 0.34375q-0.734375 0.34375 -1.234375 1.0q-0.5 0.65625 -0.75 1.609375q-0.25 0.953125 -0.25 2.140625q0 1.203125 0.25 2.15625q0.25 0.9375 0.75 1.59375q0.5 0.640625 1.234375 0.984375q0.75 0.34375 1.765625 0.34375zm7.6020813 -11.828125l1.859375 0q0.296875 0 0.484375 0.15625q0.1875 0.140625 0.25 0.328125l2.59375 8.703125q0.109375 0.46875 0.203125 0.921875q0.09375 0.4375 0.15625 0.890625q0.109375 -0.453125 0.234375 -0.890625q0.140625 -0.453125 0.28125 -0.921875l2.859375 -8.75q0.0625 -0.203125 0.21875 -0.328125q0.171875 -0.140625 0.421875 -0.140625l1.03125 0q0.265625 0 0.4375 0.140625q0.171875 0.125 0.25 0.328125l2.78125 8.75q0.140625 0.453125 0.25 0.90625q0.125 0.453125 0.234375 0.90625q0.0625 -0.453125 0.15625 -0.921875q0.109375 -0.484375 0.234375 -0.890625l2.640625 -8.703125q0.0625 -0.203125 0.25 -0.34375q0.1875 -0.140625 0.4375 -0.140625l1.796875 0l-4.375 13.5l-1.875 0q-0.359375 0 -0.484375 -0.453125l-2.984375 -9.15625q-0.109375 -0.3125 -0.171875 -0.625q-0.0625 -0.3125 -0.140625 -0.609375q-0.0625 0.296875 -0.140625 0.625q-0.0625 0.3125 -0.15625 0.625l-3.03125 9.140625q-0.140625 0.453125 -0.546875 0.453125l-1.78125 0l-4.375 -13.5zm31.684204 13.5q-0.515625 0 -0.640625 -0.5l-0.21875 -1.625q-0.859375 1.046875 -1.984375 1.6875q-1.109375 0.625 -2.546875 0.625q-1.15625 0 -2.109375 -0.4375q-0.9375 -0.453125 -1.609375 -1.3125q-0.671875 -0.875 -1.03125 -2.171875q-0.359375 -1.296875 -0.359375 -2.96875q0 -1.5 0.40625 -2.78125q0.40625 -1.28125 1.15625 -2.21875q0.75 -0.953125 1.828125 -1.484375q1.078125 -0.546875 2.453125 -0.546875q1.234375 0 2.109375 0.421875q0.890625 0.40625 1.578125 1.171875l0 -7.484375l2.375 0l0 19.625l-1.40625 0zm-4.609375 -1.734375q1.171875 0 2.03125 -0.53125q0.875 -0.53125 1.609375 -1.5l0 -6.53125q-0.640625 -0.890625 -1.421875 -1.234375q-0.78125 -0.359375 -1.734375 -0.359375q-1.890625 0 -2.90625 1.34375q-1.015625 1.34375 -1.015625 3.84375q0 1.3125 0.21875 2.265625q0.234375 0.9375 0.671875 1.546875q0.453125 0.59375 1.09375 0.875q0.640625 0.28125 1.453125 0.28125zm13.38916 -11.765625l1.859375 0q0.296875 0 0.484375 0.15625q0.1875 0.140625 0.25 0.328125l2.59375 8.703125q0.109375 0.46875 0.203125 0.921875q0.09375 0.4375 0.15625 0.890625q0.109375 -0.453125 0.234375 -0.890625q0.140625 -0.453125 0.28125 -0.921875l2.859375 -8.75q0.0625 -0.203125 0.21875 -0.328125q0.171875 -0.140625 0.421875 -0.140625l1.03125 0q0.265625 0 0.4375 0.140625q0.171875 0.125 0.25 0.328125l2.78125 8.75q0.140625 0.453125 0.25 0.90625q0.125 0.453125 0.234375 0.90625q0.0625 -0.453125 0.15625 -0.921875q0.109375 -0.484375 0.234375 -0.890625l2.640625 -8.703125q0.0625 -0.203125 0.25 -0.34375q0.1875 -0.140625 0.4375 -0.140625l1.796875 0l-4.375 13.5l-1.875 0q-0.359375 0 -0.484375 -0.453125l-2.984375 -9.15625q-0.109375 -0.3125 -0.171875 -0.625q-0.0625 -0.3125 -0.140625 -0.609375q-0.0625 0.296875 -0.140625 0.625q-0.0625 0.3125 -0.15625 0.625l-3.03125 9.140625q-0.140625 0.453125 -0.546875 0.453125l-1.78125 0l-4.375 -13.5zm27.63736 -0.21875q1.484375 0 2.671875 0.5q1.203125 0.484375 2.03125 1.390625q0.828125 0.90625 1.265625 2.203125q0.453125 1.28125 0.453125 2.875q0 1.59375 -0.453125 2.875q-0.4375 1.28125 -1.265625 2.1875q-0.828125 0.90625 -2.03125 1.390625q-1.1875 0.484375 -2.671875 0.484375q-1.46875 0 -2.671875 -0.484375q-1.1875 -0.484375 -2.03125 -1.390625q-0.84375 -0.90625 -1.296875 -2.1875q-0.453125 -1.28125 -0.453125 -2.875q0 -1.59375 0.453125 -2.875q0.453125 -1.296875 1.296875 -2.203125q0.84375 -0.90625 2.03125 -1.390625q1.203125 -0.5 2.671875 -0.5zm0 12.046875q2.0 0 2.984375 -1.328125q0.984375 -1.34375 0.984375 -3.75q0 -2.40625 -0.984375 -3.75q-0.984375 -1.34375 -2.984375 -1.34375q-1.015625 0 -1.765625 0.34375q-0.734375 0.34375 -1.234375 1.0q-0.5 0.65625 -0.75 1.609375q-0.25 0.953125 -0.25 2.140625q0 1.203125 0.25 2.15625q0.25 0.9375 0.75 1.59375q0.5 0.640625 1.234375 0.984375q0.75 0.34375 1.765625 0.34375zm9.367706 1.671875l0 -13.5l1.359375 0q0.375 0 0.515625 0.15625q0.15625 0.140625 0.203125 0.5l0.171875 2.09375q0.6875 -1.40625 1.703125 -2.1875q1.03125 -0.796875 2.390625 -0.796875q0.5625 0 1.015625 0.125q0.453125 0.125 0.84375 0.34375l-0.3125 1.78125q-0.09375 0.328125 -0.40625 0.328125q-0.1875 0 -0.578125 -0.125q-0.375 -0.125 -1.078125 -0.125q-1.234375 0 -2.078125 0.71875q-0.828125 0.71875 -1.390625 2.09375l0 8.59375l-2.359375 0zm13.195557 -19.625l0 11.546875l0.625 0q0.265625 0 0.4375 -0.0625q0.171875 -0.078125 0.375 -0.3125l4.265625 -4.5625q0.203125 -0.21875 0.40625 -0.34375q0.203125 -0.140625 0.53125 -0.140625l2.15625 0l-4.96875 5.296875q-0.1875 0.21875 -0.375 0.390625q-0.171875 0.171875 -0.390625 0.3125q0.234375 0.15625 0.421875 0.359375q0.203125 0.203125 0.375 0.484375l5.28125 6.65625l-2.140625 0q-0.296875 0 -0.5 -0.109375q-0.203125 -0.125 -0.390625 -0.359375l-4.4375 -5.53125q-0.203125 -0.28125 -0.40625 -0.359375q-0.1875 -0.09375 -0.59375 -0.09375l-0.671875 0l0 6.453125l-2.375 0l0 -19.625l2.375 0zm16.058441 5.90625q1.203125 0 2.234375 0.40625q1.03125 0.40625 1.765625 1.171875q0.75 0.765625 1.171875 1.90625q0.421875 1.125 0.421875 2.5625q0 0.546875 -0.125 0.734375q-0.125 0.1875 -0.453125 0.1875l-8.984375 0q0.03125 1.28125 0.34375 2.234375q0.328125 0.9375 0.890625 1.578125q0.5625 0.625 1.328125 0.953125q0.765625 0.3125 1.734375 0.3125q0.890625 0 1.53125 -0.203125q0.65625 -0.21875 1.125 -0.453125q0.46875 -0.25 0.78125 -0.453125q0.3125 -0.203125 0.53125 -0.203125q0.296875 0 0.453125 0.21875l0.671875 0.875q-0.4375 0.53125 -1.0625 0.921875q-0.609375 0.390625 -1.3125 0.65625q-0.6875 0.25 -1.4375 0.375q-0.75 0.125 -1.484375 0.125q-1.390625 0 -2.578125 -0.46875q-1.171875 -0.484375 -2.03125 -1.390625q-0.859375 -0.90625 -1.34375 -2.25q-0.484375 -1.359375 -0.484375 -3.109375q0 -1.40625 0.4375 -2.625q0.4375 -1.234375 1.25 -2.125q0.8125 -0.90625 1.984375 -1.421875q1.171875 -0.515625 2.640625 -0.515625zm0.046875 1.75q-1.71875 0 -2.703125 1.0q-0.984375 0.984375 -1.234375 2.75l7.34375 0q0 -0.828125 -0.234375 -1.515625q-0.21875 -0.6875 -0.65625 -1.1875q-0.4375 -0.5 -1.078125 -0.765625q-0.625 -0.28125 -1.4375 -0.28125zm8.577179 11.96875l0 -13.5l1.359375 0q0.375 0 0.515625 0.15625q0.15625 0.140625 0.203125 0.5l0.171875 2.09375q0.6875 -1.40625 1.703125 -2.1875q1.03125 -0.796875 2.390625 -0.796875q0.5625 0 1.015625 0.125q0.453125 0.125 0.84375 0.34375l-0.3125 1.78125q-0.09375 0.328125 -0.40625 0.328125q-0.1875 0 -0.578125 -0.125q-0.375 -0.125 -1.078125 -0.125q-1.234375 0 -2.078125 0.71875q-0.828125 0.71875 -1.390625 2.09375l0 8.59375l-2.359375 0zm18.461182 -11.28125q-0.15625 0.296875 -0.484375 0.296875q-0.203125 0 -0.453125 -0.140625q-0.25 -0.15625 -0.625 -0.328125q-0.359375 -0.1875 -0.875 -0.328125q-0.5 -0.15625 -1.203125 -0.15625q-0.59375 0 -1.078125 0.15625q-0.46875 0.140625 -0.8125 0.40625q-0.34375 0.265625 -0.53125 0.625q-0.171875 0.359375 -0.171875 0.765625q0 0.515625 0.296875 0.875q0.296875 0.34375 0.796875 0.59375q0.5 0.25 1.125 0.453125q0.625 0.1875 1.28125 0.40625q0.65625 0.21875 1.28125 0.484375q0.625 0.265625 1.125 0.671875q0.5 0.390625 0.796875 0.984375q0.296875 0.578125 0.296875 1.390625q0 0.921875 -0.34375 1.71875q-0.328125 0.796875 -0.984375 1.375q-0.640625 0.578125 -1.59375 0.921875q-0.9375 0.328125 -2.1875 0.328125q-1.40625 0 -2.5625 -0.453125q-1.140625 -0.46875 -1.9375 -1.1875l0.5625 -0.90625q0.109375 -0.171875 0.25 -0.265625q0.140625 -0.09375 0.390625 -0.09375q0.234375 0 0.5 0.1875q0.265625 0.1875 0.640625 0.421875q0.390625 0.21875 0.921875 0.40625q0.546875 0.171875 1.359375 0.171875q0.6875 0 1.203125 -0.171875q0.53125 -0.1875 0.875 -0.484375q0.34375 -0.3125 0.5 -0.703125q0.171875 -0.40625 0.171875 -0.859375q0 -0.5625 -0.296875 -0.921875q-0.296875 -0.375 -0.796875 -0.625q-0.484375 -0.265625 -1.125 -0.453125q-0.625 -0.203125 -1.296875 -0.40625q-0.65625 -0.21875 -1.296875 -0.484375q-0.625 -0.28125 -1.125 -0.6875q-0.484375 -0.421875 -0.78125 -1.03125q-0.296875 -0.609375 -0.296875 -1.46875q0 -0.765625 0.3125 -1.484375q0.328125 -0.71875 0.9375 -1.25q0.609375 -0.546875 1.5 -0.859375q0.90625 -0.328125 2.046875 -0.328125q1.328125 0 2.390625 0.421875q1.0625 0.421875 1.828125 1.15625l-0.53125 0.859375zm14.447815 -2.4375q1.484375 0 2.671875 0.5q1.203125 0.484375 2.03125 1.390625q0.828125 0.90625 1.265625 2.203125q0.453125 1.28125 0.453125 2.875q0 1.59375 -0.453125 2.875q-0.4375 1.28125 -1.265625 2.1875q-0.828125 0.90625 -2.03125 1.390625q-1.1875 0.484375 -2.671875 0.484375q-1.46875 0 -2.671875 -0.484375q-1.1875 -0.484375 -2.03125 -1.390625q-0.84375 -0.90625 -1.296875 -2.1875q-0.453125 -1.28125 -0.453125 -2.875q0 -1.59375 0.453125 -2.875q0.453125 -1.296875 1.296875 -2.203125q0.84375 -0.90625 2.03125 -1.390625q1.203125 -0.5 2.671875 -0.5zm0 12.046875q2.0 0 2.984375 -1.328125q0.984375 -1.34375 0.984375 -3.75q0 -2.40625 -0.984375 -3.75q-0.984375 -1.34375 -2.984375 -1.34375q-1.015625 0 -1.765625 0.34375q-0.734375 0.34375 -1.234375 1.0q-0.5 0.65625 -0.75 1.609375q-0.25 0.953125 -0.25 2.140625q0 1.203125 0.25 2.15625q0.25 0.9375 0.75 1.59375q0.5 0.640625 1.234375 0.984375q0.75 0.34375 1.765625 0.34375zm9.367676 1.671875l0 -13.5l1.359375 0q0.375 0 0.515625 0.15625q0.15625 0.140625 0.203125 0.5l0.171875 2.09375q0.6875 -1.40625 1.703125 -2.1875q1.03125 -0.796875 2.390625 -0.796875q0.5625 0 1.015625 0.125q0.453125 0.125 0.84375 0.34375l-0.3125 1.78125q-0.09375 0.328125 -0.40625 0.328125q-0.1875 0 -0.578125 -0.125q-0.375 -0.125 -1.078125 -0.125q-1.234375 0 -2.078125 0.71875q-0.828125 0.71875 -1.390625 2.09375l0 8.59375l-2.359375 0zm25.387085 0q-0.515625 0 -0.640625 -0.5l-0.21875 -1.625q-0.859375 1.046875 -1.984375 1.6875q-1.109375 0.625 -2.546875 0.625q-1.15625 0 -2.109375 -0.4375q-0.9375 -0.453125 -1.609375 -1.3125q-0.671875 -0.875 -1.03125 -2.171875q-0.359375 -1.296875 -0.359375 -2.96875q0 -1.5 0.40625 -2.78125q0.40625 -1.28125 1.15625 -2.21875q0.75 -0.953125 1.828125 -1.484375q1.078125 -0.546875 2.453125 -0.546875q1.234375 0 2.109375 0.421875q0.890625 0.40625 1.578125 1.171875l0 -7.484375l2.375 0l0 19.625l-1.40625 0zm-4.609375 -1.734375q1.171875 0 2.03125 -0.53125q0.875 -0.53125 1.609375 -1.5l0 -6.53125q-0.640625 -0.890625 -1.421875 -1.234375q-0.78125 -0.359375 -1.734375 -0.359375q-1.890625 0 -2.90625 1.34375q-1.015625 1.34375 -1.015625 3.84375q0 1.3125 0.21875 2.265625q0.234375 0.9375 0.671875 1.546875q0.453125 0.59375 1.09375 0.875q0.640625 0.28125 1.453125 0.28125zm15.463287 -11.984375q1.484375 0 2.671875 0.5q1.203125 0.484375 2.03125 1.390625q0.828125 0.90625 1.265625 2.203125q0.453125 1.28125 0.453125 2.875q0 1.59375 -0.453125 2.875q-0.4375 1.28125 -1.265625 2.1875q-0.828125 0.90625 -2.03125 1.390625q-1.1875 0.484375 -2.671875 0.484375q-1.46875 0 -2.671875 -0.484375q-1.1875 -0.484375 -2.03125 -1.390625q-0.84375 -0.90625 -1.296875 -2.1875q-0.453125 -1.28125 -0.453125 -2.875q0 -1.59375 0.453125 -2.875q0.453125 -1.296875 1.296875 -2.203125q0.84375 -0.90625 2.03125 -1.390625q1.203125 -0.5 2.671875 -0.5zm0 12.046875q2.0 0 2.984375 -1.328125q0.984375 -1.34375 0.984375 -3.75q0 -2.40625 -0.984375 -3.75q-0.984375 -1.34375 -2.984375 -1.34375q-1.015625 0 -1.765625 0.34375q-0.734375 0.34375 -1.234375 1.0q-0.5 0.65625 -0.75 1.609375q-0.25 0.953125 -0.25 2.140625q0 1.203125 0.25 2.15625q0.25 0.9375 0.75 1.59375q0.5 0.640625 1.234375 0.984375q0.75 0.34375 1.765625 0.34375zm9.367706 1.671875l0 -13.5l1.40625 0q0.5 0 0.640625 0.484375l0.171875 1.390625q0.75 -0.921875 1.671875 -1.5q0.921875 -0.59375 2.1562195 -0.59375q1.375 0 2.21875 0.765625q0.84375 0.765625 1.21875 2.046875q0.28125 -0.734375 0.734375 -1.265625q0.46875 -0.53125 1.03125 -0.875q0.578125 -0.34375 1.21875 -0.5q0.65625 -0.171875 1.3125 -0.171875q1.078125 0 1.90625 0.34375q0.828125 0.34375 1.40625 1.0q0.578125 0.640625 0.890625 1.59375q0.3125 0.953125 0.3125 2.1875l0 8.59375l-2.375 0l0 -8.59375q0 -1.59375 -0.703125 -2.40625q-0.6875 -0.828125 -2.0 -0.828125q-0.59375 0 -1.125 0.21875q-0.515625 0.203125 -0.921875 0.609375q-0.390625 0.390625 -0.625 1.0q-0.234375 0.609375 -0.234375 1.40625l0 8.59375l-2.375 0l0 -8.59375q0 -1.625 -0.65625 -2.421875q-0.65625 -0.8125 -1.90625 -0.8125q-0.8749695 0 -1.6405945 0.484375q-0.75 0.46875 -1.375 1.28125l0 10.0625l-2.359375 0zm31.790924 0l-1.046875 0q-0.34375 0 -0.5625 -0.109375q-0.21875 -0.109375 -0.28125 -0.453125l-0.265625 -1.25q-0.53125 0.484375 -1.046875 0.859375q-0.5 0.375 -1.0625 0.640625q-0.5625 0.265625 -1.203125 0.390625q-0.625 0.140625 -1.390625 0.140625q-0.78125 0 -1.46875 -0.21875q-0.6875 -0.234375 -1.203125 -0.671875q-0.5 -0.4375 -0.8125 -1.109375q-0.296875 -0.671875 -0.296875 -1.59375q0 -0.796875 0.4375 -1.53125q0.453125 -0.75 1.421875 -1.3125q0.984375 -0.578125 2.5625 -0.9375q1.59375 -0.375 3.890625 -0.421875l0 -1.0625q0 -1.5625 -0.671875 -2.375q-0.671875 -0.8125 -2.0 -0.8125q-0.859375 0 -1.453125 0.234375q-0.59375 0.21875 -1.03125 0.5q-0.4375 0.265625 -0.75 0.484375q-0.3125 0.21875 -0.609375 0.21875q-0.25 0 -0.4375 -0.125q-0.171875 -0.140625 -0.265625 -0.3125l-0.4375 -0.765625q1.125 -1.078125 2.40625 -1.609375q1.296875 -0.53125 2.875 -0.53125q1.140625 0 2.015625 0.375q0.875 0.359375 1.46875 1.03125q0.609375 0.671875 0.90625 1.625q0.3125 0.9375 0.3125 2.0625l0 8.640625zm-6.15625 -1.453125q0.625 0 1.140625 -0.125q0.53125 -0.125 0.984375 -0.359375q0.46875 -0.234375 0.875 -0.5625q0.421875 -0.34375 0.828125 -0.765625l0 -2.8125q-1.640625 0.046875 -2.796875 0.265625q-1.140625 0.203125 -1.859375 0.546875q-0.71875 0.328125 -1.046875 0.78125q-0.328125 0.453125 -0.328125 1.0q0 0.53125 0.171875 0.921875q0.1875 0.390625 0.46875 0.640625q0.296875 0.25 0.6875 0.359375q0.40625 0.109375 0.875 0.109375zm12.389648 -12.046875l0 13.5l-2.359375 0l0 -13.5l2.359375 0zm0.546875 -4.234375q0 0.34375 -0.140625 0.640625q-0.140625 0.296875 -0.375 0.53125q-0.234375 0.234375 -0.546875 0.375q-0.296875 0.125 -0.65625 0.125q-0.34375 0 -0.640625 -0.125q-0.296875 -0.140625 -0.53125 -0.375q-0.234375 -0.234375 -0.375 -0.53125q-0.125 -0.296875 -0.125 -0.640625q0 -0.359375 0.125 -0.671875q0.140625 -0.3125 0.375 -0.53125q0.234375 -0.234375 0.53125 -0.375q0.296875 -0.140625 0.640625 -0.140625q0.359375 0 0.65625 0.140625q0.3125 0.140625 0.546875 0.375q0.234375 0.21875 0.375 0.53125q0.140625 0.3125 0.140625 0.671875zm3.6520996 17.734375l0 -13.5l1.40625 0q0.5 0 0.640625 0.484375l0.1875 1.46875q0.875 -0.96875 1.953125 -1.5625q1.09375 -0.609375 2.515625 -0.609375q1.109375 0 1.953125 0.375q0.859375 0.359375 1.421875 1.03125q0.5625 0.671875 0.859375 1.625q0.296875 0.9375 0.296875 2.09375l0 8.59375l-2.375 0l0 -8.59375q0 -1.53125 -0.703125 -2.375q-0.703125 -0.859375 -2.140625 -0.859375q-1.046875 0 -1.96875 0.515625q-0.90625 0.5 -1.6875 1.375l0 9.9375l-2.359375 0zm25.309204 -13.71875q1.203125 0 2.234375 0.40625q1.03125 0.40625 1.765625 1.171875q0.75 0.765625 1.171875 1.90625q0.421875 1.125 0.421875 2.5625q0 0.546875 -0.125 0.734375q-0.125 0.1875 -0.453125 0.1875l-8.984375 0q0.03125 1.28125 0.34375 2.234375q0.328125 0.9375 0.890625 1.578125q0.5625 0.625 1.328125 0.953125q0.765625 0.3125 1.734375 0.3125q0.890625 0 1.53125 -0.203125q0.65625 -0.21875 1.125 -0.453125q0.46875 -0.25 0.78125 -0.453125q0.3125 -0.203125 0.53125 -0.203125q0.296875 0 0.453125 0.21875l0.671875 0.875q-0.4375 0.53125 -1.0625 0.921875q-0.609375 0.390625 -1.3125 0.65625q-0.6875 0.25 -1.4375 0.375q-0.75 0.125 -1.484375 0.125q-1.390625 0 -2.578125 -0.46875q-1.171875 -0.484375 -2.03125 -1.390625q-0.859375 -0.90625 -1.34375 -2.25q-0.484375 -1.359375 -0.484375 -3.109375q0 -1.40625 0.4375 -2.625q0.4375 -1.234375 1.25 -2.125q0.8125 -0.90625 1.984375 -1.421875q1.171875 -0.515625 2.640625 -0.515625zm0.046875 1.75q-1.71875 0 -2.703125 1.0q-0.984375 0.984375 -1.234375 2.75l7.34375 0q0 -0.828125 -0.234375 -1.515625q-0.21875 -0.6875 -0.65625 -1.1875q-0.4375 -0.5 -1.078125 -0.765625q-0.625 -0.28125 -1.4375 -0.28125zm10.933411 5.046875l-4.546875 -6.578125l2.28125 0q0.28125 0 0.421875 0.09375q0.140625 0.09375 0.234375 0.265625l3.3125 5.0625q0.125 -0.375 0.34375 -0.75l2.90625 -4.265625q0.140625 -0.1875 0.265625 -0.296875q0.140625 -0.109375 0.328125 -0.109375l2.1875 0l-4.546875 6.453125l4.734375 7.046875l-2.28125 0q-0.28125 0 -0.453125 -0.15625q-0.171875 -0.15625 -0.28125 -0.34375l-3.390625 -5.28125q-0.09375 0.390625 -0.28125 0.6875l-3.140625 4.59375q-0.140625 0.1875 -0.296875 0.34375q-0.140625 0.15625 -0.40625 0.15625l-2.125 0l4.734375 -6.921875zm10.278442 11.5l0 -18.078125l1.40625 0q0.5 0 0.640625 0.484375l0.203125 1.609375q0.859375 -1.0625 1.96875 -1.6875q1.125 -0.640625 2.578125 -0.640625q1.15625 0 2.09375 0.453125q0.953125 0.4375 1.609375 1.3125q0.671875 0.859375 1.03125 2.15625q0.359375 1.296875 0.359375 2.96875q0 1.5 -0.40625 2.796875q-0.390625 1.28125 -1.140625 2.21875q-0.734375 0.9375 -1.828125 1.484375q-1.078125 0.53125 -2.4375 0.53125q-1.265625 0 -2.15625 -0.40625q-0.875 -0.421875 -1.5625 -1.1875l0 5.984375l-2.359375 0zm6.0 -16.40625q-1.15625 0 -2.03125 0.546875q-0.875 0.53125 -1.609375 1.5l0 6.53125q0.65625 0.875 1.4375 1.234375q0.78125 0.359375 1.734375 0.359375q1.890625 0 2.890625 -1.34375q1.015625 -1.34375 1.015625 -3.84375q0 -1.3125 -0.234375 -2.25q-0.234375 -0.953125 -0.671875 -1.5625q-0.4375 -0.609375 -1.078125 -0.890625q-0.640625 -0.28125 -1.453125 -0.28125zm14.057983 -1.890625q1.203125 0 2.234375 0.40625q1.03125 0.40625 1.765625 1.171875q0.75 0.765625 1.171875 1.90625q0.421875 1.125 0.421875 2.5625q0 0.546875 -0.125 0.734375q-0.125 0.1875 -0.453125 0.1875l-8.984375 0q0.03125 1.28125 0.34375 2.234375q0.328125 0.9375 0.890625 1.578125q0.5625 0.625 1.328125 0.953125q0.765625 0.3125 1.734375 0.3125q0.890625 0 1.53125 -0.203125q0.65625 -0.21875 1.125 -0.453125q0.46875 -0.25 0.78125 -0.453125q0.3125 -0.203125 0.53125 -0.203125q0.296875 0 0.453125 0.21875l0.671875 0.875q-0.4375 0.53125 -1.0625 0.921875q-0.609375 0.390625 -1.3125 0.65625q-0.6875 0.25 -1.4375 0.375q-0.75 0.125 -1.484375 0.125q-1.390625 0 -2.578125 -0.46875q-1.171875 -0.484375 -2.03125 -1.390625q-0.859375 -0.90625 -1.34375 -2.25q-0.484375 -1.359375 -0.484375 -3.109375q0 -1.40625 0.4375 -2.625q0.4375 -1.234375 1.25 -2.125q0.8125 -0.90625 1.984375 -1.421875q1.171875 -0.515625 2.640625 -0.515625zm0.046875 1.75q-1.71875 0 -2.703125 1.0q-0.984375 0.984375 -1.234375 2.75l7.34375 0q0 -0.828125 -0.234375 -1.515625q-0.21875 -0.6875 -0.65625 -1.1875q-0.4375 -0.5 -1.078125 -0.765625q-0.625 -0.28125 -1.4375 -0.28125zm8.577209 11.96875l0 -13.5l1.359375 0q0.375 0 0.515625 0.15625q0.15625 0.140625 0.203125 0.5l0.171875 2.09375q0.6875 -1.40625 1.703125 -2.1875q1.03125 -0.796875 2.390625 -0.796875q0.5625 0 1.015625 0.125q0.453125 0.125 0.84375 0.34375l-0.3125 1.78125q-0.09375 0.328125 -0.40625 0.328125q-0.1875 0 -0.578125 -0.125q-0.375 -0.125 -1.078125 -0.125q-1.234375 0 -2.078125 0.71875q-0.828125 0.71875 -1.390625 2.09375l0 8.59375l-2.359375 0zm14.820557 0.21875q-1.59375 0 -2.453125 -0.890625q-0.859375 -0.90625 -0.859375 -2.578125l0 -8.265625l-1.625 0q-0.21875 0 -0.359375 -0.125q-0.140625 -0.125 -0.140625 -0.390625l0 -0.953125l2.203125 -0.28125l0.546875 -4.171875q0.03125 -0.203125 0.171875 -0.328125q0.15625 -0.125 0.375 -0.125l1.203125 0l0 4.65625l3.859375 0l0 1.71875l-3.859375 0l0 8.109375q0 0.84375 0.40625 1.265625q0.421875 0.40625 1.078125 0.40625q0.359375 0 0.625 -0.09375q0.28125 -0.109375 0.484375 -0.21875q0.203125 -0.125 0.34375 -0.21875q0.140625 -0.109375 0.25 -0.109375q0.1875 0 0.328125 0.234375l0.6875 1.125q-0.609375 0.578125 -1.484375 0.90625q-0.859375 0.328125 -1.78125 0.328125zm13.583374 -11.5q-0.15625 0.296875 -0.484375 0.296875q-0.203125 0 -0.453125 -0.140625q-0.25 -0.15625 -0.625 -0.328125q-0.359375 -0.1875 -0.875 -0.328125q-0.5 -0.15625 -1.203125 -0.15625q-0.59375 0 -1.078125 0.15625q-0.46875 0.140625 -0.8125 0.40625q-0.34375 0.265625 -0.53125 0.625q-0.171875 0.359375 -0.171875 0.765625q0 0.515625 0.296875 0.875q0.296875 0.34375 0.796875 0.59375q0.5 0.25 1.125 0.453125q0.625 0.1875 1.28125 0.40625q0.65625 0.21875 1.28125 0.484375q0.625 0.265625 1.125 0.671875q0.5 0.390625 0.796875 0.984375q0.296875 0.578125 0.296875 1.390625q0 0.921875 -0.34375 1.71875q-0.328125 0.796875 -0.984375 1.375q-0.640625 0.578125 -1.59375 0.921875q-0.9375 0.328125 -2.1875 0.328125q-1.40625 0 -2.5625 -0.453125q-1.140625 -0.46875 -1.9375 -1.1875l0.5625 -0.90625q0.109375 -0.171875 0.25 -0.265625q0.140625 -0.09375 0.390625 -0.09375q0.234375 0 0.5 0.1875q0.265625 0.1875 0.640625 0.421875q0.390625 0.21875 0.921875 0.40625q0.546875 0.171875 1.359375 0.171875q0.6875 0 1.203125 -0.171875q0.53125 -0.1875 0.875 -0.484375q0.34375 -0.3125 0.5 -0.703125q0.171875 -0.40625 0.171875 -0.859375q0 -0.5625 -0.296875 -0.921875q-0.296875 -0.375 -0.796875 -0.625q-0.484375 -0.265625 -1.125 -0.453125q-0.625 -0.203125 -1.296875 -0.40625q-0.65625 -0.21875 -1.296875 -0.484375q-0.625 -0.28125 -1.125 -0.6875q-0.484375 -0.421875 -0.78125 -1.03125q-0.296875 -0.609375 -0.296875 -1.46875q0 -0.765625 0.3125 -1.484375q0.328125 -0.71875 0.9375 -1.25q0.609375 -0.546875 1.5 -0.859375q0.90625 -0.328125 2.046875 -0.328125q1.328125 0 2.390625 0.421875q1.0625 0.421875 1.828125 1.15625l-0.53125 0.859375zm18.90094 11.28125l-1.046875 0q-0.34375 0 -0.5625 -0.109375q-0.21875 -0.109375 -0.28125 -0.453125l-0.265625 -1.25q-0.53125 0.484375 -1.046875 0.859375q-0.5 0.375 -1.0625 0.640625q-0.5625 0.265625 -1.203125 0.390625q-0.625 0.140625 -1.390625 0.140625q-0.78125 0 -1.46875 -0.21875q-0.6875 -0.234375 -1.203125 -0.671875q-0.5 -0.4375 -0.8125 -1.109375q-0.296875 -0.671875 -0.296875 -1.59375q0 -0.796875 0.4375 -1.53125q0.453125 -0.75 1.421875 -1.3125q0.984375 -0.578125 2.5625 -0.9375q1.59375 -0.375 3.890625 -0.421875l0 -1.0625q0 -1.5625 -0.671875 -2.375q-0.671875 -0.8125 -2.0 -0.8125q-0.859375 0 -1.453125 0.234375q-0.59375 0.21875 -1.03125 0.5q-0.4375 0.265625 -0.75 0.484375q-0.3125 0.21875 -0.609375 0.21875q-0.25 0 -0.4375 -0.125q-0.171875 -0.140625 -0.265625 -0.3125l-0.4375 -0.765625q1.125 -1.078125 2.40625 -1.609375q1.296875 -0.53125 2.875 -0.53125q1.140625 0 2.015625 0.375q0.875 0.359375 1.46875 1.03125q0.609375 0.671875 0.90625 1.625q0.3125 0.9375 0.3125 2.0625l0 8.640625zm-6.15625 -1.453125q0.625 0 1.140625 -0.125q0.53125 -0.125 0.984375 -0.359375q0.46875 -0.234375 0.875 -0.5625q0.421875 -0.34375 0.828125 -0.765625l0 -2.8125q-1.640625 0.046875 -2.796875 0.265625q-1.140625 0.203125 -1.859375 0.546875q-0.71875 0.328125 -1.046875 0.78125q-0.328125 0.453125 -0.328125 1.0q0 0.53125 0.171875 0.921875q0.1875 0.390625 0.46875 0.640625q0.296875 0.25 0.6875 0.359375q0.40625 0.109375 0.875 0.109375zm17.483398 -9.828125q-0.15625 0.296875 -0.484375 0.296875q-0.203125 0 -0.453125 -0.140625q-0.25 -0.15625 -0.625 -0.328125q-0.359375 -0.1875 -0.875 -0.328125q-0.5 -0.15625 -1.203125 -0.15625q-0.59375 0 -1.078125 0.15625q-0.46875 0.140625 -0.8125 0.40625q-0.34375 0.265625 -0.53125 0.625q-0.171875 0.359375 -0.171875 0.765625q0 0.515625 0.296875 0.875q0.296875 0.34375 0.796875 0.59375q0.5 0.25 1.125 0.453125q0.625 0.1875 1.28125 0.40625q0.65625 0.21875 1.28125 0.484375q0.625 0.265625 1.125 0.671875q0.5 0.390625 0.796875 0.984375q0.296875 0.578125 0.296875 1.390625q0 0.921875 -0.34375 1.71875q-0.328125 0.796875 -0.984375 1.375q-0.640625 0.578125 -1.59375 0.921875q-0.9375 0.328125 -2.1875 0.328125q-1.40625 0 -2.5625 -0.453125q-1.140625 -0.46875 -1.9375 -1.1875l0.5625 -0.90625q0.109375 -0.171875 0.25 -0.265625q0.140625 -0.09375 0.390625 -0.09375q0.234375 0 0.5 0.1875q0.265625 0.1875 0.640625 0.421875q0.390625 0.21875 0.921875 0.40625q0.546875 0.171875 1.359375 0.171875q0.6875 0 1.203125 -0.171875q0.53125 -0.1875 0.875 -0.484375q0.34375 -0.3125 0.5 -0.703125q0.171875 -0.40625 0.171875 -0.859375q0 -0.5625 -0.296875 -0.921875q-0.296875 -0.375 -0.796875 -0.625q-0.484375 -0.265625 -1.125 -0.453125q-0.625 -0.203125 -1.296875 -0.40625q-0.65625 -0.21875 -1.296875 -0.484375q-0.625 -0.28125 -1.125 -0.6875q-0.484375 -0.421875 -0.78125 -1.03125q-0.296875 -0.609375 -0.296875 -1.46875q0 -0.765625 0.3125 -1.484375q0.328125 -0.71875 0.9375 -1.25q0.609375 -0.546875 1.5 -0.859375q0.90625 -0.328125 2.046875 -0.328125q1.328125 0 2.390625 0.421875q1.0625 0.421875 1.828125 1.15625l-0.53125 0.859375zm11.568787 0q-0.15625 0.296875 -0.484375 0.296875q-0.203125 0 -0.453125 -0.140625q-0.25 -0.15625 -0.625 -0.328125q-0.359375 -0.1875 -0.875 -0.328125q-0.5 -0.15625 -1.203125 -0.15625q-0.59375 0 -1.078125 0.15625q-0.46875 0.140625 -0.8125 0.40625q-0.34375 0.265625 -0.53125 0.625q-0.171875 0.359375 -0.171875 0.765625q0 0.515625 0.296875 0.875q0.296875 0.34375 0.796875 0.59375q0.5 0.25 1.125 0.453125q0.625 0.1875 1.28125 0.40625q0.65625 0.21875 1.28125 0.484375q0.625 0.265625 1.125 0.671875q0.5 0.390625 0.796875 0.984375q0.296875 0.578125 0.296875 1.390625q0 0.921875 -0.34375 1.71875q-0.328125 0.796875 -0.984375 1.375q-0.640625 0.578125 -1.59375 0.921875q-0.9375 0.328125 -2.1875 0.328125q-1.40625 0 -2.5625 -0.453125q-1.140625 -0.46875 -1.9375 -1.1875l0.5625 -0.90625q0.109375 -0.171875 0.25 -0.265625q0.140625 -0.09375 0.390625 -0.09375q0.234375 0 0.5 0.1875q0.265625 0.1875 0.640625 0.421875q0.390625 0.21875 0.921875 0.40625q0.546875 0.171875 1.359375 0.171875q0.6875 0 1.203125 -0.171875q0.53125 -0.1875 0.875 -0.484375q0.34375 -0.3125 0.5 -0.703125q0.171875 -0.40625 0.171875 -0.859375q0 -0.5625 -0.296875 -0.921875q-0.296875 -0.375 -0.796875 -0.625q-0.484375 -0.265625 -1.125 -0.453125q-0.625 -0.203125 -1.296875 -0.40625q-0.65625 -0.21875 -1.296875 -0.484375q-0.625 -0.28125 -1.125 -0.6875q-0.484375 -0.421875 -0.78125 -1.03125q-0.296875 -0.609375 -0.296875 -1.46875q0 -0.765625 0.3125 -1.484375q0.328125 -0.71875 0.9375 -1.25q0.609375 -0.546875 1.5 -0.859375q0.90625 -0.328125 2.046875 -0.328125q1.328125 0 2.390625 0.421875q1.0625 0.421875 1.828125 1.15625l-0.53125 0.859375zm6.4750366 -2.21875l0 13.5l-2.359375 0l0 -13.5l2.359375 0zm0.546875 -4.234375q0 0.34375 -0.140625 0.640625q-0.140625 0.296875 -0.375 0.53125q-0.234375 0.234375 -0.546875 0.375q-0.296875 0.125 -0.65625 0.125q-0.34375 0 -0.640625 -0.125q-0.296875 -0.140625 -0.53125 -0.375q-0.234375 -0.234375 -0.375 -0.53125q-0.125 -0.296875 -0.125 -0.640625q0 -0.359375 0.125 -0.671875q0.140625 -0.3125 0.375 -0.53125q0.234375 -0.234375 0.53125 -0.375q0.296875 -0.140625 0.640625 -0.140625q0.359375 0 0.65625 0.140625q0.3125 0.140625 0.546875 0.375q0.234375 0.21875 0.375 0.53125q0.140625 0.3125 0.140625 0.671875zm8.18335 4.0q0.890625 0 1.65625 0.203125q0.765625 0.1875 1.390625 0.5625l3.65625 0l0 0.875q0 0.4375 -0.546875 0.5625l-1.53125 0.21875q0.453125 0.859375 0.453125 1.921875q0 1.0 -0.390625 1.8125q-0.375 0.796875 -1.046875 1.375q-0.671875 0.5625 -1.609375 0.875q-0.921875 0.296875 -2.03125 0.296875q-0.9375 0 -1.78125 -0.21875q-0.421875 0.265625 -0.640625 0.578125q-0.21875 0.296875 -0.21875 0.59375q0 0.484375 0.375 0.734375q0.390625 0.234375 1.03125 0.34375q0.640625 0.109375 1.453125 0.140625q0.8125 0.015625 1.65625 0.078125q0.84375 0.0625 1.65625 0.21875q0.8125 0.140625 1.453125 0.46875q0.640625 0.328125 1.03125 0.921875q0.390625 0.578125 0.390625 1.515625q0 0.875 -0.4375 1.6875q-0.4375 0.8125 -1.25 1.4375q-0.8125 0.640625 -1.984375 1.015625q-1.171875 0.375 -2.640625 0.375q-1.484375 0 -2.609375 -0.296875q-1.109375 -0.28125 -1.84375 -0.78125q-0.71875 -0.484375 -1.09375 -1.140625q-0.359375 -0.640625 -0.359375 -1.34375q0 -1.0 0.625 -1.703125q0.640625 -0.703125 1.734375 -1.109375q-0.5625 -0.265625 -0.90625 -0.703125q-0.34375 -0.453125 -0.34375 -1.203125q0 -0.296875 0.109375 -0.609375q0.109375 -0.3125 0.328125 -0.609375q0.21875 -0.3125 0.53125 -0.59375q0.328125 -0.28125 0.75 -0.5q-1.0 -0.5625 -1.5625 -1.484375q-0.5625 -0.921875 -0.5625 -2.171875q0 -0.984375 0.375 -1.78125q0.375 -0.8125 1.046875 -1.375q0.6875 -0.5625 1.625 -0.875q0.953125 -0.3125 2.0625 -0.3125zm4.21875 14.46875q0 -0.5 -0.28125 -0.8125q-0.28125 -0.3125 -0.765625 -0.46875q-0.46875 -0.171875 -1.09375 -0.25q-0.625 -0.078125 -1.328125 -0.109375q-0.6875 -0.046875 -1.40625 -0.078125q-0.71875 -0.046875 -1.375 -0.15625q-0.765625 0.375 -1.234375 0.890625q-0.46875 0.515625 -0.46875 1.234375q0 0.453125 0.234375 0.84375q0.234375 0.390625 0.703125 0.671875q0.484375 0.296875 1.203125 0.453125q0.734375 0.171875 1.71875 0.171875q0.96875 0 1.71875 -0.171875q0.765625 -0.171875 1.28125 -0.5q0.53125 -0.3125 0.8125 -0.75q0.28125 -0.4375 0.28125 -0.96875zm-4.21875 -7.328125q0.71875 0 1.265625 -0.203125q0.5625 -0.203125 0.9375 -0.5625q0.375 -0.359375 0.5625 -0.859375q0.1875 -0.5 0.1875 -1.09375q0 -1.25 -0.75 -1.96875q-0.75 -0.734375 -2.203125 -0.734375q-1.421875 0 -2.171875 0.734375q-0.75 0.71875 -0.75 1.96875q0 0.59375 0.1875 1.09375q0.1875 0.5 0.5625 0.859375q0.375 0.359375 0.921875 0.5625q0.546875 0.203125 1.25 0.203125zm9.090027 6.59375l0 -13.5l1.40625 0q0.5 0 0.640625 0.484375l0.1875 1.46875q0.875 -0.96875 1.953125 -1.5625q1.09375 -0.609375 2.515625 -0.609375q1.109375 0 1.953125 0.375q0.859375 0.359375 1.421875 1.03125q0.5625 0.671875 0.859375 1.625q0.296875 0.9375 0.296875 2.09375l0 8.59375l-2.375 0l0 -8.59375q0 -1.53125 -0.703125 -2.375q-0.703125 -0.859375 -2.140625 -0.859375q-1.046875 0 -1.96875 0.515625q-0.90625 0.5 -1.6875 1.375l0 9.9375l-2.359375 0zm29.871704 0l-1.046875 0q-0.34375 0 -0.5625 -0.109375q-0.21875 -0.109375 -0.28125 -0.453125l-0.265625 -1.25q-0.53125 0.484375 -1.046875 0.859375q-0.5 0.375 -1.0625 0.640625q-0.5625 0.265625 -1.203125 0.390625q-0.625 0.140625 -1.390625 0.140625q-0.78125 0 -1.46875 -0.21875q-0.6875 -0.234375 -1.203125 -0.671875q-0.5 -0.4375 -0.8125 -1.109375q-0.296875 -0.671875 -0.296875 -1.59375q0 -0.796875 0.4375 -1.53125q0.453125 -0.75 1.421875 -1.3125q0.984375 -0.578125 2.5625 -0.9375q1.59375 -0.375 3.890625 -0.421875l0 -1.0625q0 -1.5625 -0.671875 -2.375q-0.671875 -0.8125 -2.0 -0.8125q-0.859375 0 -1.453125 0.234375q-0.59375 0.21875 -1.03125 0.5q-0.4375 0.265625 -0.75 0.484375q-0.3125 0.21875 -0.609375 0.21875q-0.25 0 -0.4375 -0.125q-0.171875 -0.140625 -0.265625 -0.3125l-0.4375 -0.765625q1.125 -1.078125 2.40625 -1.609375q1.296875 -0.53125 2.875 -0.53125q1.140625 0 2.015625 0.375q0.875 0.359375 1.46875 1.03125q0.609375 0.671875 0.90625 1.625q0.3125 0.9375 0.3125 2.0625l0 8.640625zm-6.15625 -1.453125q0.625 0 1.140625 -0.125q0.53125 -0.125 0.984375 -0.359375q0.46875 -0.234375 0.875 -0.5625q0.421875 -0.34375 0.828125 -0.765625l0 -2.8125q-1.640625 0.046875 -2.796875 0.265625q-1.140625 0.203125 -1.859375 0.546875q-0.71875 0.328125 -1.046875 0.78125q-0.328125 0.453125 -0.328125 1.0q0 0.53125 0.171875 0.921875q0.1875 0.390625 0.46875 0.640625q0.296875 0.25 0.6875 0.359375q0.40625 0.109375 0.875 0.109375zm19.264648 1.453125q-0.515625 0 -0.640625 -0.5l-0.21875 -1.625q-0.859375 1.046875 -1.984375 1.6875q-1.109375 0.625 -2.546875 0.625q-1.15625 0 -2.109375 -0.4375q-0.9375 -0.453125 -1.609375 -1.3125q-0.671875 -0.875 -1.03125 -2.171875q-0.359375 -1.296875 -0.359375 -2.96875q0 -1.5 0.40625 -2.78125q0.40625 -1.28125 1.15625 -2.21875q0.75 -0.953125 1.828125 -1.484375q1.078125 -0.546875 2.453125 -0.546875q1.234375 0 2.109375 0.421875q0.890625 0.40625 1.578125 1.171875l0 -7.484375l2.375 0l0 19.625l-1.40625 0zm-4.609375 -1.734375q1.171875 0 2.03125 -0.53125q0.875 -0.53125 1.609375 -1.5l0 -6.53125q-0.640625 -0.890625 -1.421875 -1.234375q-0.78125 -0.359375 -1.734375 -0.359375q-1.890625 0 -2.90625 1.34375q-1.015625 1.34375 -1.015625 3.84375q0 1.3125 0.21875 2.265625q0.234375 0.9375 0.671875 1.546875q0.453125 0.59375 1.09375 0.875q0.640625 0.28125 1.453125 0.28125zm19.510193 1.734375q-0.515625 0 -0.640625 -0.5l-0.21875 -1.625q-0.859375 1.046875 -1.984375 1.6875q-1.109375 0.625 -2.546875 0.625q-1.15625 0 -2.109375 -0.4375q-0.9375 -0.453125 -1.609375 -1.3125q-0.671875 -0.875 -1.03125 -2.171875q-0.359375 -1.296875 -0.359375 -2.96875q0 -1.5 0.40625 -2.78125q0.40625 -1.28125 1.15625 -2.21875q0.75 -0.953125 1.828125 -1.484375q1.078125 -0.546875 2.453125 -0.546875q1.234375 0 2.109375 0.421875q0.890625 0.40625 1.578125 1.171875l0 -7.484375l2.375 0l0 19.625l-1.40625 0zm-4.609375 -1.734375q1.171875 0 2.03125 -0.53125q0.875 -0.53125 1.609375 -1.5l0 -6.53125q-0.640625 -0.890625 -1.421875 -1.234375q-0.78125 -0.359375 -1.734375 -0.359375q-1.890625 0 -2.90625 1.34375q-1.015625 1.34375 -1.015625 3.84375q0 1.3125 0.21875 2.265625q0.234375 0.9375 0.671875 1.546875q0.453125 0.59375 1.09375 0.875q0.640625 0.28125 1.453125 0.28125zm12.635132 -11.765625l0 13.5l-2.359375 0l0 -13.5l2.359375 0zm0.546875 -4.234375q0 0.34375 -0.140625 0.640625q-0.140625 0.296875 -0.375 0.53125q-0.234375 0.234375 -0.546875 0.375q-0.296875 0.125 -0.65625 0.125q-0.34375 0 -0.640625 -0.125q-0.296875 -0.140625 -0.53125 -0.375q-0.234375 -0.234375 -0.375 -0.53125q-0.125 -0.296875 -0.125 -0.640625q0 -0.359375 0.125 -0.671875q0.140625 -0.3125 0.375 -0.53125q0.234375 -0.234375 0.53125 -0.375q0.296875 -0.140625 0.640625 -0.140625q0.359375 0 0.65625 0.140625q0.3125 0.140625 0.546875 0.375q0.234375 0.21875 0.375 0.53125q0.140625 0.3125 0.140625 0.671875zm7.7302246 17.953125q-1.59375 0 -2.453125 -0.890625q-0.859375 -0.90625 -0.859375 -2.578125l0 -8.265625l-1.625 0q-0.21875 0 -0.359375 -0.125q-0.140625 -0.125 -0.140625 -0.390625l0 -0.953125l2.203125 -0.28125l0.546875 -4.171875q0.03125 -0.203125 0.171875 -0.328125q0.15625 -0.125 0.375 -0.125l1.203125 0l0 4.65625l3.859375 0l0 1.71875l-3.859375 0l0 8.109375q0 0.84375 0.40625 1.265625q0.421875 0.40625 1.078125 0.40625q0.359375 0 0.625 -0.09375q0.28125 -0.109375 0.484375 -0.21875q0.203125 -0.125 0.34375 -0.21875q0.140625 -0.109375 0.25 -0.109375q0.1875 0 0.328125 0.234375l0.6875 1.125q-0.609375 0.578125 -1.484375 0.90625q-0.859375 0.328125 -1.78125 0.328125zm8.489624 -13.71875l0 13.5l-2.359375 0l0 -13.5l2.359375 0zm0.546875 -4.234375q0 0.34375 -0.140625 0.640625q-0.140625 0.296875 -0.375 0.53125q-0.234375 0.234375 -0.546875 0.375q-0.296875 0.125 -0.65625 0.125q-0.34375 0 -0.640625 -0.125q-0.296875 -0.140625 -0.53125 -0.375q-0.234375 -0.234375 -0.375 -0.53125q-0.125 -0.296875 -0.125 -0.640625q0 -0.359375 0.125 -0.671875q0.140625 -0.3125 0.375 -0.53125q0.234375 -0.234375 0.53125 -0.375q0.296875 -0.140625 0.640625 -0.140625q0.359375 0 0.65625 0.140625q0.3125 0.140625 0.546875 0.375q0.234375 0.21875 0.375 0.53125q0.140625 0.3125 0.140625 0.671875zm9.105225 4.015625q1.484375 0 2.671875 0.5q1.203125 0.484375 2.03125 1.390625q0.828125 0.90625 1.265625 2.203125q0.453125 1.28125 0.453125 2.875q0 1.59375 -0.453125 2.875q-0.4375 1.28125 -1.265625 2.1875q-0.828125 0.90625 -2.03125 1.390625q-1.1875 0.484375 -2.671875 0.484375q-1.46875 0 -2.671875 -0.484375q-1.1875 -0.484375 -2.03125 -1.390625q-0.84375 -0.90625 -1.296875 -2.1875q-0.453125 -1.28125 -0.453125 -2.875q0 -1.59375 0.453125 -2.875q0.453125 -1.296875 1.296875 -2.203125q0.84375 -0.90625 2.03125 -1.390625q1.203125 -0.5 2.671875 -0.5zm0 12.046875q2.0 0 2.984375 -1.328125q0.984375 -1.34375 0.984375 -3.75q0 -2.40625 -0.984375 -3.75q-0.984375 -1.34375 -2.984375 -1.34375q-1.015625 0 -1.765625 0.34375q-0.734375 0.34375 -1.234375 1.0q-0.5 0.65625 -0.75 1.609375q-0.25 0.953125 -0.25 2.140625q0 1.203125 0.25 2.15625q0.25 0.9375 0.75 1.59375q0.5 0.640625 1.234375 0.984375q0.75 0.34375 1.765625 0.34375zm9.367676 1.671875l0 -13.5l1.40625 0q0.5 0 0.640625 0.484375l0.1875 1.46875q0.875 -0.96875 1.953125 -1.5625q1.09375 -0.609375 2.515625 -0.609375q1.109375 0 1.953125 0.375q0.859375 0.359375 1.421875 1.03125q0.5625 0.671875 0.859375 1.625q0.296875 0.9375 0.296875 2.09375l0 8.59375l-2.375 0l0 -8.59375q0 -1.53125 -0.703125 -2.375q-0.703125 -0.859375 -2.140625 -0.859375q-1.046875 0 -1.96875 0.515625q-0.90625 0.5 -1.6875 1.375l0 9.9375l-2.359375 0zm24.72705 0l-1.046875 0q-0.34375 0 -0.5625 -0.109375q-0.21875 -0.109375 -0.28125 -0.453125l-0.265625 -1.25q-0.53125 0.484375 -1.046875 0.859375q-0.5 0.375 -1.0625 0.640625q-0.5625 0.265625 -1.203125 0.390625q-0.625 0.140625 -1.390625 0.140625q-0.78125 0 -1.46875 -0.21875q-0.6875 -0.234375 -1.203125 -0.671875q-0.5 -0.4375 -0.8125 -1.109375q-0.296875 -0.671875 -0.296875 -1.59375q0 -0.796875 0.4375 -1.53125q0.453125 -0.75 1.421875 -1.3125q0.984375 -0.578125 2.5625 -0.9375q1.59375 -0.375 3.890625 -0.421875l0 -1.0625q0 -1.5625 -0.671875 -2.375q-0.671875 -0.8125 -2.0 -0.8125q-0.859375 0 -1.453125 0.234375q-0.59375 0.21875 -1.03125 0.5q-0.4375 0.265625 -0.75 0.484375q-0.3125 0.21875 -0.609375 0.21875q-0.25 0 -0.4375 -0.125q-0.171875 -0.140625 -0.265625 -0.3125l-0.4375 -0.765625q1.125 -1.078125 2.40625 -1.609375q1.296875 -0.53125 2.875 -0.53125q1.140625 0 2.015625 0.375q0.875 0.359375 1.46875 1.03125q0.609375 0.671875 0.90625 1.625q0.3125 0.9375 0.3125 2.0625l0 8.640625zm-6.15625 -1.453125q0.625 0 1.140625 -0.125q0.53125 -0.125 0.984375 -0.359375q0.46875 -0.234375 0.875 -0.5625q0.421875 -0.34375 0.828125 -0.765625l0 -2.8125q-1.640625 0.046875 -2.796875 0.265625q-1.140625 0.203125 -1.859375 0.546875q-0.71875 0.328125 -1.046875 0.78125q-0.328125 0.453125 -0.328125 1.0q0 0.53125 0.171875 0.921875q0.1875 0.390625 0.46875 0.640625q0.296875 0.25 0.6875 0.359375q0.40625 0.109375 0.875 0.109375zm12.389648 -18.171875l0 19.625l-2.359375 0l0 -19.625l2.359375 0z" fill-rule="nonzero"/><path fill="#ffffff" d="m51.92196 275.86423l0 19.625l-2.359375 0l0 -19.625l2.359375 0zm14.105225 19.625l-1.046875 0q-0.34375 0 -0.5625 -0.109375q-0.21875 -0.109375 -0.28125 -0.453125l-0.265625 -1.25q-0.53125 0.484375 -1.046875 0.859375q-0.5 0.375 -1.0625 0.640625q-0.5625 0.265625 -1.203125 0.390625q-0.625 0.140625 -1.390625 0.140625q-0.78125 0 -1.46875 -0.21875q-0.6875 -0.234375 -1.203125 -0.671875q-0.5 -0.4375 -0.8125 -1.109375q-0.296875 -0.671875 -0.296875 -1.59375q0 -0.796875 0.4375 -1.53125q0.453125 -0.75 1.421875 -1.3125q0.984375 -0.578125 2.5625 -0.9375q1.59375 -0.375 3.890625 -0.421875l0 -1.0625q0 -1.5625 -0.671875 -2.375q-0.671875 -0.8125 -2.0 -0.8125q-0.859375 0 -1.453125 0.234375q-0.59375 0.21875 -1.03125 0.5q-0.4375 0.265625 -0.75 0.484375q-0.3125 0.21875 -0.609375 0.21875q-0.25 0 -0.4375 -0.125q-0.171875 -0.140625 -0.265625 -0.3125l-0.4375 -0.765625q1.125 -1.078125 2.40625 -1.609375q1.296875 -0.53125 2.875 -0.53125q1.140625 0 2.015625 0.375q0.875 0.359375 1.46875 1.03125q0.609375 0.671875 0.90625 1.625q0.3125 0.9375 0.3125 2.0625l0 8.640625zm-6.15625 -1.453125q0.625 0 1.140625 -0.125q0.53125 -0.125 0.984375 -0.359375q0.46875 -0.234375 0.875 -0.5625q0.421875 -0.34375 0.828125 -0.765625l0 -2.8125q-1.640625 0.046875 -2.796875 0.265625q-1.140625 0.203125 -1.859375 0.546875q-0.71875 0.328125 -1.046875 0.78125q-0.328125 0.453125 -0.328125 1.0q0 0.53125 0.171875 0.921875q0.1875 0.390625 0.46875 0.640625q0.296875 0.25 0.6875 0.359375q0.40625 0.109375 0.875 0.109375zm9.842789 1.453125l0 -19.625l2.375 0l0 8.0625q0.84375 -0.96875 1.921875 -1.5625q1.09375 -0.59375 2.5 -0.59375q1.171875 0 2.109375 0.453125q0.953125 0.4375 1.609375 1.3125q0.671875 0.859375 1.03125 2.15625q0.359375 1.28125 0.359375 2.953125q0 1.5 -0.40625 2.796875q-0.390625 1.28125 -1.140625 2.21875q-0.75 0.9375 -1.84375 1.484375q-1.078125 0.53125 -2.4375 0.53125q-1.3125 0 -2.234375 -0.5q-0.90625 -0.515625 -1.578125 -1.421875l-0.125 1.234375q-0.109375 0.5 -0.609375 0.5l-1.53125 0zm6.015625 -11.828125q-1.15625 0 -2.03125 0.546875q-0.875 0.53125 -1.609375 1.5l0 6.53125q0.640625 0.875 1.421875 1.234375q0.78125 0.359375 1.75 0.359375q1.890625 0 2.890625 -1.34375q1.015625 -1.34375 1.015625 -3.84375q0 -1.3125 -0.234375 -2.25q-0.234375 -0.953125 -0.671875 -1.5625q-0.4375 -0.609375 -1.078125 -0.890625q-0.640625 -0.28125 -1.453125 -0.28125zm14.150787 -1.890625q1.203125 0 2.234375 0.40625q1.03125 0.40625 1.765625 1.171875q0.75 0.765625 1.171875 1.90625q0.421875 1.125 0.421875 2.5625q0 0.546875 -0.125 0.734375q-0.125 0.1875 -0.453125 0.1875l-8.984375 0q0.03125 1.28125 0.34375 2.234375q0.328125 0.9375 0.890625 1.578125q0.5625 0.625 1.328125 0.953125q0.765625 0.3125 1.734375 0.3125q0.890625 0 1.53125 -0.203125q0.65625 -0.21875 1.125 -0.453125q0.46875 -0.25 0.78125 -0.453125q0.3125 -0.203125 0.53125 -0.203125q0.296875 0 0.453125 0.21875l0.671875 0.875q-0.4375 0.53125 -1.0625 0.921875q-0.609375 0.390625 -1.3125 0.65625q-0.6875 0.25 -1.4375 0.375q-0.75 0.125 -1.484375 0.125q-1.390625 0 -2.578125 -0.46875q-1.171875 -0.484375 -2.03125 -1.390625q-0.859375 -0.90625 -1.34375 -2.25q-0.484375 -1.359375 -0.484375 -3.109375q0 -1.40625 0.4375 -2.625q0.4375 -1.234375 1.25 -2.125q0.8125 -0.90625 1.984375 -1.421875q1.171875 -0.515625 2.640625 -0.515625zm0.046875 1.75q-1.71875 0 -2.703125 1.0q-0.984375 0.984375 -1.234375 2.75l7.34375 0q0 -0.828125 -0.234375 -1.515625q-0.21875 -0.6875 -0.65625 -1.1875q-0.4375 -0.5 -1.078125 -0.765625q-0.625 -0.28125 -1.4375 -0.28125zm11.202194 -7.65625l0 19.625l-2.359375 0l0 -19.625l2.359375 0zm11.917725 8.34375q-0.15625 0.296875 -0.484375 0.296875q-0.203125 0 -0.453125 -0.140625q-0.25 -0.15625 -0.625 -0.328125q-0.359375 -0.1875 -0.875 -0.328125q-0.5 -0.15625 -1.203125 -0.15625q-0.59375 0 -1.078125 0.15625q-0.46875 0.140625 -0.8125 0.40625q-0.34375 0.265625 -0.53125 0.625q-0.171875 0.359375 -0.171875 0.765625q0 0.515625 0.296875 0.875q0.296875 0.34375 0.796875 0.59375q0.5 0.25 1.125 0.453125q0.625 0.1875 1.28125 0.40625q0.65625 0.21875 1.28125 0.484375q0.625 0.265625 1.125 0.671875q0.5 0.390625 0.796875 0.984375q0.296875 0.578125 0.296875 1.390625q0 0.921875 -0.34375 1.71875q-0.328125 0.796875 -0.984375 1.375q-0.640625 0.578125 -1.59375 0.921875q-0.9375 0.328125 -2.1875 0.328125q-1.40625 0 -2.5625 -0.453125q-1.140625 -0.46875 -1.9375 -1.1875l0.5625 -0.90625q0.109375 -0.171875 0.25 -0.265625q0.140625 -0.09375 0.390625 -0.09375q0.234375 0 0.5 0.1875q0.265625 0.1875 0.640625 0.421875q0.390625 0.21875 0.921875 0.40625q0.546875 0.171875 1.359375 0.171875q0.6875 0 1.203125 -0.171875q0.53125 -0.1875 0.875 -0.484375q0.34375 -0.3125 0.5 -0.703125q0.171875 -0.40625 0.171875 -0.859375q0 -0.5625 -0.296875 -0.921875q-0.296875 -0.375 -0.796875 -0.625q-0.484375 -0.265625 -1.125 -0.453125q-0.625 -0.203125 -1.296875 -0.40625q-0.65625 -0.21875 -1.296875 -0.484375q-0.625 -0.28125 -1.125 -0.6875q-0.484375 -0.421875 -0.78125 -1.03125q-0.296875 -0.609375 -0.296875 -1.46875q0 -0.765625 0.3125 -1.484375q0.328125 -0.71875 0.9375 -1.25q0.609375 -0.546875 1.5 -0.859375q0.90625 -0.328125 2.046875 -0.328125q1.328125 0 2.390625 0.421875q1.0625 0.421875 1.828125 1.15625l-0.53125 0.859375zm13.072784 11.5q-1.59375 0 -2.453125 -0.890625q-0.859375 -0.90625 -0.859375 -2.578125l0 -8.265625l-1.625 0q-0.21875 0 -0.359375 -0.125q-0.140625 -0.125 -0.140625 -0.390625l0 -0.953125l2.203125 -0.28125l0.546875 -4.171875q0.03125 -0.203125 0.171875 -0.328125q0.15625 -0.125 0.375 -0.125l1.203125 0l0 4.65625l3.8593674 0l0 1.71875l-3.8593674 0l0 8.109375q0 0.84375 0.40625 1.265625q0.421875 0.40625 1.078125 0.40625q0.359375 0 0.625 -0.09375q0.28125 -0.109375 0.484375 -0.21875q0.203125 -0.125 0.34374237 -0.21875q0.140625 -0.109375 0.25 -0.109375q0.1875 0 0.328125 0.234375l0.6875 1.125q-0.609375 0.578125 -1.4843674 0.90625q-0.859375 0.328125 -1.78125 0.328125zm11.317741 -13.9375q1.484375 0 2.671875 0.5q1.203125 0.484375 2.03125 1.390625q0.828125 0.90625 1.265625 2.203125q0.453125 1.28125 0.453125 2.875q0 1.59375 -0.453125 2.875q-0.4375 1.28125 -1.265625 2.1875q-0.828125 0.90625 -2.03125 1.390625q-1.1875 0.484375 -2.671875 0.484375q-1.46875 0 -2.671875 -0.484375q-1.1875 -0.484375 -2.03125 -1.390625q-0.84375 -0.90625 -1.296875 -2.1875q-0.453125 -1.28125 -0.453125 -2.875q0 -1.59375 0.453125 -2.875q0.453125 -1.296875 1.296875 -2.203125q0.84375 -0.90625 2.03125 -1.390625q1.203125 -0.5 2.671875 -0.5zm0 12.046875q2.0 0 2.984375 -1.328125q0.984375 -1.34375 0.984375 -3.75q0 -2.40625 -0.984375 -3.75q-0.984375 -1.34375 -2.984375 -1.34375q-1.015625 0 -1.765625 0.34375q-0.734375 0.34375 -1.234375 1.0q-0.5 0.65625 -0.75 1.609375q-0.25 0.953125 -0.25 2.140625q0 1.203125 0.25 2.15625q0.25 0.9375 0.75 1.59375q0.5 0.640625 1.234375 0.984375q0.75 0.34375 1.765625 0.34375zm24.01233 1.671875q-0.515625 0 -0.640625 -0.5l-0.21875 -1.625q-0.859375 1.046875 -1.984375 1.6875q-1.109375 0.625 -2.546875 0.625q-1.15625 0 -2.109375 -0.4375q-0.9375 -0.453125 -1.609375 -1.3125q-0.671875 -0.875 -1.03125 -2.171875q-0.359375 -1.296875 -0.359375 -2.96875q0 -1.5 0.40625 -2.78125q0.40625 -1.28125 1.15625 -2.21875q0.75 -0.953125 1.828125 -1.484375q1.078125 -0.546875 2.453125 -0.546875q1.234375 0 2.109375 0.421875q0.890625 0.40625 1.578125 1.171875l0 -7.484375l2.375 0l0 19.625l-1.40625 0zm-4.609375 -1.734375q1.171875 0 2.03125 -0.53125q0.875 -0.53125 1.609375 -1.5l0 -6.53125q-0.640625 -0.890625 -1.421875 -1.234375q-0.78125 -0.359375 -1.734375 -0.359375q-1.890625 0 -2.90625 1.34375q-1.015625 1.34375 -1.015625 3.84375q0 1.3125 0.21875 2.265625q0.234375 0.9375 0.671875 1.546875q0.453125 0.59375 1.09375 0.875q0.640625 0.28125 1.453125 0.28125zm19.916412 1.734375l-1.046875 0q-0.34375 0 -0.5625 -0.109375q-0.21875 -0.109375 -0.28125 -0.453125l-0.265625 -1.25q-0.53125 0.484375 -1.046875 0.859375q-0.5 0.375 -1.0625 0.640625q-0.5625 0.265625 -1.203125 0.390625q-0.625 0.140625 -1.390625 0.140625q-0.78125 0 -1.46875 -0.21875q-0.6875 -0.234375 -1.203125 -0.671875q-0.5 -0.4375 -0.8125 -1.109375q-0.296875 -0.671875 -0.296875 -1.59375q0 -0.796875 0.4375 -1.53125q0.453125 -0.75 1.421875 -1.3125q0.984375 -0.578125 2.5625 -0.9375q1.59375 -0.375 3.890625 -0.421875l0 -1.0625q0 -1.5625 -0.671875 -2.375q-0.671875 -0.8125 -2.0 -0.8125q-0.859375 0 -1.453125 0.234375q-0.59375 0.21875 -1.03125 0.5q-0.4375 0.265625 -0.75 0.484375q-0.3125 0.21875 -0.609375 0.21875q-0.25 0 -0.4375 -0.125q-0.171875 -0.140625 -0.265625 -0.3125l-0.4375 -0.765625q1.125 -1.078125 2.40625 -1.609375q1.296875 -0.53125 2.875 -0.53125q1.140625 0 2.015625 0.375q0.875 0.359375 1.46875 1.03125q0.609375 0.671875 0.90625 1.625q0.3125 0.9375 0.3125 2.0625l0 8.640625zm-6.15625 -1.453125q0.625 0 1.140625 -0.125q0.53125 -0.125 0.984375 -0.359375q0.46875 -0.234375 0.875 -0.5625q0.421875 -0.34375 0.828125 -0.765625l0 -2.8125q-1.640625 0.046875 -2.796875 0.265625q-1.140625 0.203125 -1.859375 0.546875q-0.71875 0.328125 -1.046875 0.78125q-0.328125 0.453125 -0.328125 1.0q0 0.53125 0.171875 0.921875q0.1875 0.390625 0.46875 0.640625q0.296875 0.25 0.6875 0.359375q0.40625 0.109375 0.875 0.109375zm13.842789 1.671875q-1.59375 0 -2.453125 -0.890625q-0.859375 -0.90625 -0.859375 -2.578125l0 -8.265625l-1.625 0q-0.21875 0 -0.359375 -0.125q-0.140625 -0.125 -0.140625 -0.390625l0 -0.953125l2.203125 -0.28125l0.546875 -4.171875q0.03125 -0.203125 0.171875 -0.328125q0.15625 -0.125 0.375 -0.125l1.203125 0l0 4.65625l3.859375 0l0 1.71875l-3.859375 0l0 8.109375q0 0.84375 0.40625 1.265625q0.421875 0.40625 1.078125 0.40625q0.359375 0 0.625 -0.09375q0.28125 -0.109375 0.484375 -0.21875q0.203125 -0.125 0.34375 -0.21875q0.140625 -0.109375 0.25 -0.109375q0.1875 0 0.328125 0.234375l0.6875 1.125q-0.609375 0.578125 -1.484375 0.90625q-0.859375 0.328125 -1.78125 0.328125zm15.770874 -0.21875l-1.046875 0q-0.34375 0 -0.5625 -0.109375q-0.21875 -0.109375 -0.28125 -0.453125l-0.265625 -1.25q-0.53125 0.484375 -1.046875 0.859375q-0.5 0.375 -1.0625 0.640625q-0.5625 0.265625 -1.203125 0.390625q-0.625 0.140625 -1.390625 0.140625q-0.78125 0 -1.46875 -0.21875q-0.6875 -0.234375 -1.203125 -0.671875q-0.5 -0.4375 -0.8125 -1.109375q-0.296875 -0.671875 -0.296875 -1.59375q0 -0.796875 0.4375 -1.53125q0.453125 -0.75 1.421875 -1.3125q0.984375 -0.578125 2.5625 -0.9375q1.59375 -0.375 3.890625 -0.421875l0 -1.0625q0 -1.5625 -0.671875 -2.375q-0.671875 -0.8125 -2.0 -0.8125q-0.859375 0 -1.453125 0.234375q-0.59375 0.21875 -1.03125 0.5q-0.4375 0.265625 -0.75 0.484375q-0.3125 0.21875 -0.609375 0.21875q-0.25 0 -0.4375 -0.125q-0.171875 -0.140625 -0.265625 -0.3125l-0.4375 -0.765625q1.125 -1.078125 2.40625 -1.609375q1.296875 -0.53125 2.875 -0.53125q1.140625 0 2.015625 0.375q0.875 0.359375 1.46875 1.03125q0.609375 0.671875 0.90625 1.625q0.3125 0.9375 0.3125 2.0625l0 8.640625zm-6.15625 -1.453125q0.625 0 1.140625 -0.125q0.53125 -0.125 0.984375 -0.359375q0.46875 -0.234375 0.875 -0.5625q0.421875 -0.34375 0.828125 -0.765625l0 -2.8125q-1.640625 0.046875 -2.796875 0.265625q-1.140625 0.203125 -1.859375 0.546875q-0.71875 0.328125 -1.046875 0.78125q-0.328125 0.453125 -0.328125 1.0q0 0.53125 0.171875 0.921875q0.1875 0.390625 0.46875 0.640625q0.296875 0.25 0.6875 0.359375q0.40625 0.109375 0.875 0.109375zm22.628052 -9.828125q-0.15625 0.296875 -0.484375 0.296875q-0.203125 0 -0.453125 -0.140625q-0.25 -0.15625 -0.625 -0.328125q-0.359375 -0.1875 -0.875 -0.328125q-0.5 -0.15625 -1.203125 -0.15625q-0.59375 0 -1.078125 0.15625q-0.46875 0.140625 -0.8125 0.40625q-0.34375 0.265625 -0.53125 0.625q-0.171875 0.359375 -0.171875 0.765625q0 0.515625 0.296875 0.875q0.296875 0.34375 0.796875 0.59375q0.5 0.25 1.125 0.453125q0.625 0.1875 1.28125 0.40625q0.65625 0.21875 1.28125 0.484375q0.625 0.265625 1.125 0.671875q0.5 0.390625 0.796875 0.984375q0.296875 0.578125 0.296875 1.390625q0 0.921875 -0.34375 1.71875q-0.328125 0.796875 -0.984375 1.375q-0.640625 0.578125 -1.59375 0.921875q-0.9375 0.328125 -2.1875 0.328125q-1.40625 0 -2.5625 -0.453125q-1.140625 -0.46875 -1.9375 -1.1875l0.5625 -0.90625q0.109375 -0.171875 0.25 -0.265625q0.140625 -0.09375 0.390625 -0.09375q0.234375 0 0.5 0.1875q0.265625 0.1875 0.640625 0.421875q0.390625 0.21875 0.921875 0.40625q0.546875 0.171875 1.359375 0.171875q0.6875 0 1.203125 -0.171875q0.53125 -0.1875 0.875 -0.484375q0.34375 -0.3125 0.5 -0.703125q0.171875 -0.40625 0.171875 -0.859375q0 -0.5625 -0.296875 -0.921875q-0.296875 -0.375 -0.796875 -0.625q-0.484375 -0.265625 -1.125 -0.453125q-0.625 -0.203125 -1.296875 -0.40625q-0.65625 -0.21875 -1.296875 -0.484375q-0.625 -0.28125 -1.125 -0.6875q-0.484375 -0.421875 -0.78125 -1.03125q-0.296875 -0.609375 -0.296875 -1.46875q0 -0.765625 0.3125 -1.484375q0.328125 -0.71875 0.9375 -1.25q0.609375 -0.546875 1.5 -0.859375q0.90625 -0.328125 2.046875 -0.328125q1.328125 0 2.390625 0.421875q1.0625 0.421875 1.828125 1.15625l-0.53125 0.859375zm13.756271 11.28125l-1.046875 0q-0.34375 0 -0.5625 -0.109375q-0.21875 -0.109375 -0.28125 -0.453125l-0.265625 -1.25q-0.53125 0.484375 -1.046875 0.859375q-0.5 0.375 -1.0625 0.640625q-0.5625 0.265625 -1.203125 0.390625q-0.625 0.140625 -1.390625 0.140625q-0.78125 0 -1.46875 -0.21875q-0.6875 -0.234375 -1.203125 -0.671875q-0.5 -0.4375 -0.8125 -1.109375q-0.296875 -0.671875 -0.296875 -1.59375q0 -0.796875 0.4375 -1.53125q0.453125 -0.75 1.421875 -1.3125q0.984375 -0.578125 2.5625 -0.9375q1.59375 -0.375 3.890625 -0.421875l0 -1.0625q0 -1.5625 -0.671875 -2.375q-0.671875 -0.8125 -2.0 -0.8125q-0.859375 0 -1.453125 0.234375q-0.59375 0.21875 -1.03125 0.5q-0.4375 0.265625 -0.75 0.484375q-0.3125 0.21875 -0.609375 0.21875q-0.25 0 -0.4375 -0.125q-0.171875 -0.140625 -0.265625 -0.3125l-0.4375 -0.765625q1.125 -1.078125 2.40625 -1.609375q1.296875 -0.53125 2.875 -0.53125q1.140625 0 2.015625 0.375q0.875 0.359375 1.46875 1.03125q0.609375 0.671875 0.90625 1.625q0.3125 0.9375 0.3125 2.0625l0 8.640625zm-6.15625 -1.453125q0.625 0 1.140625 -0.125q0.53125 -0.125 0.984375 -0.359375q0.46875 -0.234375 0.875 -0.5625q0.421875 -0.34375 0.828125 -0.765625l0 -2.8125q-1.640625 0.046875 -2.796875 0.265625q-1.140625 0.203125 -1.859375 0.546875q-0.71875 0.328125 -1.046875 0.78125q-0.328125 0.453125 -0.328125 1.0q0 0.53125 0.171875 0.921875q0.1875 0.390625 0.46875 0.640625q0.296875 0.25 0.6875 0.359375q0.40625 0.109375 0.875 0.109375zm9.764664 1.453125l0 -13.5l1.40625 0q0.5 0 0.640625 0.484375l0.171875 1.390625q0.75 -0.921875 1.671875 -1.5q0.921875 -0.59375 2.15625 -0.59375q1.375 0 2.21875 0.765625q0.84375 0.765625 1.21875 2.046875q0.28125 -0.734375 0.734375 -1.265625q0.46875 -0.53125 1.03125 -0.875q0.578125 -0.34375 1.21875 -0.5q0.65625 -0.171875 1.3125 -0.171875q1.078125 0 1.90625 0.34375q0.828125 0.34375 1.40625 1.0q0.578125 0.640625 0.890625 1.59375q0.3125 0.953125 0.3125 2.1875l0 8.59375l-2.375 0l0 -8.59375q0 -1.59375 -0.703125 -2.40625q-0.6875 -0.828125 -2.0 -0.828125q-0.59375 0 -1.125 0.21875q-0.515625 0.203125 -0.921875 0.609375q-0.390625 0.390625 -0.625 1.0q-0.234375 0.609375 -0.234375 1.40625l0 8.59375l-2.375 0l0 -8.59375q0 -1.625 -0.65625 -2.421875q-0.65625 -0.8125 -1.90625 -0.8125q-0.875 0 -1.640625 0.484375q-0.75 0.46875 -1.375 1.28125l0 10.0625l-2.359375 0zm21.884705 4.578125l0 -18.078125l1.40625 0q0.5 0 0.640625 0.484375l0.203125 1.609375q0.859375 -1.0625 1.96875 -1.6875q1.125 -0.640625 2.578125 -0.640625q1.15625 0 2.09375 0.453125q0.953125 0.4375 1.609375 1.3125q0.671875 0.859375 1.03125 2.15625q0.359375 1.296875 0.359375 2.96875q0 1.5 -0.40625 2.796875q-0.390625 1.28125 -1.140625 2.21875q-0.734375 0.9375 -1.828125 1.484375q-1.078125 0.53125 -2.4375 0.53125q-1.265625 0 -2.15625 -0.40625q-0.875 -0.421875 -1.5625 -1.1875l0 5.984375l-2.359375 0zm6.0 -16.40625q-1.15625 0 -2.03125 0.546875q-0.875 0.53125 -1.609375 1.5l0 6.53125q0.65625 0.875 1.4375 1.234375q0.78125 0.359375 1.734375 0.359375q1.890625 0 2.890625 -1.34375q1.015625 -1.34375 1.015625 -3.84375q0 -1.3125 -0.234375 -2.25q-0.234375 -0.953125 -0.671875 -1.5625q-0.4375 -0.609375 -1.078125 -0.890625q-0.640625 -0.28125 -1.453125 -0.28125zm11.339203 -7.796875l0 19.625l-2.359375 0l0 -19.625l2.359375 0zm9.542725 5.90625q1.203125 0 2.234375 0.40625q1.03125 0.40625 1.765625 1.171875q0.75 0.765625 1.171875 1.90625q0.421875 1.125 0.421875 2.5625q0 0.546875 -0.125 0.734375q-0.125 0.1875 -0.453125 0.1875l-8.984375 0q0.03125 1.28125 0.34375 2.234375q0.328125 0.9375 0.890625 1.578125q0.5625 0.625 1.328125 0.953125q0.765625 0.3125 1.734375 0.3125q0.890625 0 1.53125 -0.203125q0.65625 -0.21875 1.125 -0.453125q0.46875 -0.25 0.78125 -0.453125q0.3125 -0.203125 0.53125 -0.203125q0.296875 0 0.453125 0.21875l0.671875 0.875q-0.4375 0.53125 -1.0625 0.921875q-0.609375 0.390625 -1.3125 0.65625q-0.6875 0.25 -1.4375 0.375q-0.75 0.125 -1.484375 0.125q-1.390625 0 -2.578125 -0.46875q-1.171875 -0.484375 -2.03125 -1.390625q-0.859375 -0.90625 -1.34375 -2.25q-0.484375 -1.359375 -0.484375 -3.109375q0 -1.40625 0.4375 -2.625q0.4375 -1.234375 1.25 -2.125q0.8125 -0.90625 1.984375 -1.421875q1.171875 -0.515625 2.640625 -0.515625zm0.046875 1.75q-1.71875 0 -2.703125 1.0q-0.984375 0.984375 -1.234375 2.75l7.34375 0q0 -0.828125 -0.234375 -1.515625q-0.21875 -0.6875 -0.65625 -1.1875q-0.4375 -0.5 -1.078125 -0.765625q-0.625 -0.28125 -1.4375 -0.28125zm16.29596 0.6875q-0.15625 0.296875 -0.484375 0.296875q-0.203125 0 -0.453125 -0.140625q-0.25 -0.15625 -0.625 -0.328125q-0.359375 -0.1875 -0.875 -0.328125q-0.5 -0.15625 -1.203125 -0.15625q-0.59375 0 -1.078125 0.15625q-0.46875 0.140625 -0.8125 0.40625q-0.34375 0.265625 -0.53125 0.625q-0.171875 0.359375 -0.171875 0.765625q0 0.515625 0.296875 0.875q0.296875 0.34375 0.796875 0.59375q0.5 0.25 1.125 0.453125q0.625 0.1875 1.28125 0.40625q0.65625 0.21875 1.28125 0.484375q0.625 0.265625 1.125 0.671875q0.5 0.390625 0.796875 0.984375q0.296875 0.578125 0.296875 1.390625q0 0.921875 -0.34375 1.71875q-0.328125 0.796875 -0.984375 1.375q-0.640625 0.578125 -1.59375 0.921875q-0.9375 0.328125 -2.1875 0.328125q-1.40625 0 -2.5625 -0.453125q-1.140625 -0.46875 -1.9375 -1.1875l0.5625 -0.90625q0.109375 -0.171875 0.25 -0.265625q0.140625 -0.09375 0.390625 -0.09375q0.234375 0 0.5 0.1875q0.265625 0.1875 0.640625 0.421875q0.390625 0.21875 0.921875 0.40625q0.546875 0.171875 1.359375 0.171875q0.6875 0 1.203125 -0.171875q0.53125 -0.1875 0.875 -0.484375q0.34375 -0.3125 0.5 -0.703125q0.171875 -0.40625 0.171875 -0.859375q0 -0.5625 -0.296875 -0.921875q-0.296875 -0.375 -0.796875 -0.625q-0.484375 -0.265625 -1.125 -0.453125q-0.625 -0.203125 -1.296875 -0.40625q-0.65625 -0.21875 -1.296875 -0.484375q-0.625 -0.28125 -1.125 -0.6875q-0.484375 -0.421875 -0.78125 -1.03125q-0.296875 -0.609375 -0.296875 -1.46875q0 -0.765625 0.3125 -1.484375q0.328125 -0.71875 0.9375 -1.25q0.609375 -0.546875 1.5 -0.859375q0.90625 -0.328125 2.046875 -0.328125q1.328125 0 2.390625 0.421875q1.0625 0.421875 1.828125 1.15625l-0.53125 0.859375z" fill-rule="nonzero"/><path fill="#ffffff" d="m59.687584 311.3486q-0.15625 0.1875 -0.296875 0.296875q-0.125 0.09375 -0.3125 0.09375q-0.21875 0 -0.46875 -0.234375q-0.25 -0.234375 -0.65625 -0.5q-0.390625 -0.28125 -0.953125 -0.515625q-0.546875 -0.234375 -1.390625 -0.234375q-0.859375 0 -1.53125 0.265625q-0.65625 0.265625 -1.125 0.734375q-0.453125 0.453125 -0.703125 1.078125q-0.234375 0.609375 -0.234375 1.3125q0 0.6875 0.3125 1.171875q0.328125 0.46875 0.84375 0.8125q0.53125 0.328125 1.203125 0.59375q0.671875 0.25 1.359375 0.53125q0.703125 0.265625 1.375 0.609375q0.671875 0.328125 1.1875 0.828125q0.515625 0.484375 0.828125 1.1875q0.328125 0.6875 0.328125 1.671875q0 1.359375 -0.46875 2.5625q-0.453125 1.203125 -1.328125 2.109375q-0.875 0.90625 -2.125 1.453125q-1.234375 0.53125 -2.78125 0.53125q-1.703125 0 -3.046875 -0.671875q-1.328125 -0.6875 -2.203125 -1.828125l0.890625 -1.1875q0.09375 -0.140625 0.25 -0.234375q0.171875 -0.09375 0.359375 -0.09375q0.25 0 0.546875 0.296875q0.296875 0.296875 0.75 0.671875q0.453125 0.359375 1.109375 0.671875q0.671875 0.296875 1.671875 0.296875q0.921875 0 1.65625 -0.296875q0.734375 -0.296875 1.25 -0.8125q0.515625 -0.515625 0.796875 -1.234375q0.28125 -0.734375 0.28125 -1.625q0 -0.734375 -0.328125 -1.21875q-0.3125 -0.484375 -0.84375 -0.8125q-0.515625 -0.34375 -1.171875 -0.578125q-0.65625 -0.25 -1.359375 -0.5q-0.703125 -0.265625 -1.359375 -0.578125q-0.65625 -0.328125 -1.1875 -0.8125q-0.515625 -0.5 -0.84375 -1.21875q-0.3125 -0.71875 -0.3125 -1.765625q0 -1.171875 0.421875 -2.25q0.4375 -1.078125 1.234375 -1.90625q0.796875 -0.828125 1.9375 -1.3125q1.15625 -0.5 2.59375 -0.5q1.46875 0 2.640625 0.5625q1.171875 0.546875 1.9375 1.53125l-0.734375 1.046875zm4.89653 20.171875q-0.28125 0.546875 -0.828125 0.546875l-1.734375 0l2.921875 -5.375l-3.5 -12.703125l1.953125 0q0.28125 0 0.421875 0.140625q0.140625 0.140625 0.203125 0.34375l2.171875 8.515625q0.0625 0.28125 0.09375 0.5625q0.046875 0.265625 0.078125 0.546875q0.125 -0.28125 0.234375 -0.5625q0.109375 -0.28125 0.25 -0.5625l4.265625 -8.515625q0.109375 -0.21875 0.296875 -0.34375q0.203125 -0.125 0.40625 -0.125l1.875 0l-9.109375 17.53125zm9.422699 -4.03125l1.609375 -13.515625l1.1875 0q0.796875 0 0.796875 0.796875l-0.203125 2.609375q1.078125 -1.78125 2.421875 -2.6875q1.359375 -0.90625 2.8125 -0.90625q1.515625 0 2.34375 1.015625q0.828125 1.015625 0.828125 2.953125q0 0.265625 -0.015625 0.546875q0 0.28125 -0.046875 0.59375l-1.015625 8.59375l-2.375 0l1.015625 -8.59375q0.03125 -0.265625 0.046875 -0.515625q0.015625 -0.25 0.015625 -0.46875q0 -1.09375 -0.40625 -1.625q-0.40625 -0.53125 -1.265625 -0.53125q-0.640625 0 -1.296875 0.359375q-0.65625 0.34375 -1.28125 0.984375q-0.609375 0.625 -1.140625 1.53125q-0.515625 0.890625 -0.890625 2.0l-0.78125 6.859375l-2.359375 0zm19.036758 -1.671875q0.96875 0 1.765625 -0.53125q0.8125 -0.53125 1.359375 -1.40625q0.5625 -0.890625 0.875 -2.046875q0.3125 -1.171875 0.3125 -2.4375q0 -1.859375 -0.734375 -2.796875q-0.734375 -0.953125 -2.125 -0.953125q-0.984375 0 -1.78125 0.53125q-0.796875 0.515625 -1.359375 1.40625q-0.546875 0.890625 -0.859375 2.046875q-0.296875 1.15625 -0.296875 2.421875q0 1.859375 0.71875 2.8125q0.734375 0.953125 2.125 0.953125zm-0.21875 1.859375q-1.09375 0 -2.015625 -0.375q-0.921875 -0.390625 -1.59375 -1.109375q-0.65625 -0.71875 -1.03125 -1.75q-0.375 -1.046875 -0.375 -2.375q0 -1.703125 0.53125 -3.203125q0.53125 -1.515625 1.453125 -2.640625q0.9375 -1.140625 2.1875 -1.796875q1.265625 -0.65625 2.734375 -0.65625q1.109375 0 2.015625 0.390625q0.921875 0.375 1.59375 1.09375q0.671875 0.71875 1.03125 1.765625q0.375 1.046875 0.375 2.359375q0 1.703125 -0.53125 3.203125q-0.53125 1.5 -1.453125 2.640625q-0.921875 1.125 -2.203125 1.796875q-1.265625 0.65625 -2.71875 0.65625zm8.597839 -0.1875l1.609375 -13.515625l1.1875 0q0.796875 0 0.796875 0.796875l-0.203125 2.609375q1.078125 -1.78125 2.421875 -2.6875q1.359375 -0.90625 2.8125 -0.90625q1.515625 0 2.34375 1.015625q0.828125 1.015625 0.828125 2.953125q0 0.265625 -0.015625 0.546875q0 0.28125 -0.046875 0.59375l-1.015625 8.59375l-2.375 0l1.015625 -8.59375q0.03125 -0.265625 0.046875 -0.515625q0.015625 -0.25 0.015625 -0.46875q0 -1.09375 -0.40625 -1.625q-0.40625 -0.53125 -1.265625 -0.53125q-0.640625 0 -1.296875 0.359375q-0.65625 0.34375 -1.28125 0.984375q-0.609375 0.625 -1.140625 1.53125q-0.515625 0.890625 -0.890625 2.0l-0.78125 6.859375l-2.359375 0zm16.72676 4.03125q-0.28125 0.546875 -0.828125 0.546875l-1.734375 0l2.921875 -5.375l-3.5 -12.703125l1.953125 0q0.28125 0 0.421875 0.140625q0.140625 0.140625 0.203125 0.34375l2.171875 8.515625q0.0625 0.28125 0.09375 0.5625q0.046875 0.265625 0.078125 0.546875q0.125 -0.28125 0.234375 -0.5625q0.109375 -0.28125 0.25 -0.5625l4.265625 -8.515625q0.109375 -0.21875 0.296875 -0.34375q0.203125 -0.125 0.40625 -0.125l1.875 0l-9.109375 17.53125zm9.422699 -4.03125l1.6249924 -13.515625l1.1875 0q0.796875 0 0.796875 0.796875l-0.1875 2.421875q1.0 -1.6875 2.1875 -2.546875q1.1875 -0.859375 2.5 -0.859375q1.375 0 2.015625 0.9375q0.65625 0.9375 0.65625 2.6875q1.015625 -1.84375 2.28125 -2.734375q1.265625 -0.890625 2.640625 -0.890625q1.5 0 2.234375 0.984375q0.734375 0.96875 0.734375 2.796875q0 0.296875 -0.03125 0.640625q-0.015625 0.328125 -0.0625 0.6875l-1.0 8.59375l-2.34375 0l1.015625 -8.59375q0.078125 -0.65625 0.078125 -1.1875q0 -1.0 -0.328125 -1.46875q-0.328125 -0.484375 -1.125 -0.484375q-0.5625 0 -1.140625 0.296875q-0.578125 0.28125 -1.109375 0.84375q-0.53125 0.546875 -1.0 1.375q-0.453125 0.8125 -0.8125 1.875l-0.859375 7.34375l-2.34375 0l1.015625 -8.59375q0.046875 -0.359375 0.0625 -0.671875q0.03125 -0.328125 0.03125 -0.609375q0 -0.953125 -0.3125 -1.40625q-0.3125 -0.453125 -1.09375 -0.453125q-0.640625 0 -1.234375 0.328125q-0.59375 0.3125 -1.125 0.921875q-0.515625 0.609375 -0.96875 1.484375q-0.453125 0.875 -0.828125 1.96875l-0.84375 7.03125l-2.3124924 0zm20.525719 -1.46875q0 -0.34375 0.125 -0.640625q0.140625 -0.3125 0.359375 -0.53125q0.234375 -0.234375 0.53125 -0.359375q0.296875 -0.140625 0.65625 -0.140625q0.34375 0 0.640625 0.140625q0.3125 0.125 0.53125 0.359375q0.234375 0.21875 0.359375 0.53125q0.140625 0.296875 0.140625 0.640625q0 0.359375 -0.140625 0.671875q-0.125 0.296875 -0.359375 0.53125q-0.21875 0.21875 -0.53125 0.34375q-0.296875 0.125 -0.640625 0.125q-0.359375 0 -0.65625 -0.125q-0.296875 -0.125 -0.53125 -0.34375q-0.21875 -0.234375 -0.359375 -0.53125q-0.125 -0.3125 -0.125 -0.671875zm1.34375 -10.0q0 -0.34375 0.125 -0.640625q0.125 -0.3125 0.34375 -0.53125q0.234375 -0.234375 0.53125 -0.359375q0.296875 -0.140625 0.65625 -0.140625q0.34375 0 0.640625 0.140625q0.3125 0.125 0.53125 0.359375q0.234375 0.21875 0.359375 0.53125q0.140625 0.296875 0.140625 0.640625q0 0.359375 -0.140625 0.671875q-0.125 0.296875 -0.359375 0.53125q-0.21875 0.21875 -0.53125 0.34375q-0.296875 0.125 -0.640625 0.125q-0.359375 0 -0.65625 -0.125q-0.296875 -0.125 -0.53125 -0.34375q-0.21875 -0.234375 -0.34375 -0.53125q-0.125 -0.3125 -0.125 -0.671875z" fill-rule="nonzero"/><path fill="#ffffff" d="m162.89128 307.86423l0 19.625l-2.359375 0l0 -19.625l2.359375 0zm14.105225 19.625l-1.046875 0q-0.34375 0 -0.5625 -0.109375q-0.21875 -0.109375 -0.28125 -0.453125l-0.265625 -1.25q-0.53125 0.484375 -1.046875 0.859375q-0.5 0.375 -1.0625 0.640625q-0.5625 0.265625 -1.203125 0.390625q-0.625 0.140625 -1.390625 0.140625q-0.78125 0 -1.46875 -0.21875q-0.6875 -0.234375 -1.203125 -0.671875q-0.5 -0.4375 -0.8125 -1.109375q-0.296875 -0.671875 -0.296875 -1.59375q0 -0.796875 0.4375 -1.53125q0.453125 -0.75 1.421875 -1.3125q0.984375 -0.578125 2.5625 -0.9375q1.59375 -0.375 3.890625 -0.421875l0 -1.0625q0 -1.5625 -0.671875 -2.375q-0.671875 -0.8125 -2.0 -0.8125q-0.859375 0 -1.453125 0.234375q-0.59375 0.21875 -1.03125 0.5q-0.4375 0.265625 -0.75 0.484375q-0.3125 0.21875 -0.609375 0.21875q-0.25 0 -0.4375 -0.125q-0.171875 -0.140625 -0.265625 -0.3125l-0.4375 -0.765625q1.125 -1.078125 2.40625 -1.609375q1.296875 -0.53125 2.875 -0.53125q1.140625 0 2.015625 0.375q0.875 0.359375 1.46875 1.03125q0.609375 0.671875 0.90625 1.625q0.3125 0.9375 0.3125 2.0625l0 8.640625zm-6.15625 -1.453125q0.625 0 1.140625 -0.125q0.53125 -0.125 0.984375 -0.359375q0.46875 -0.234375 0.875 -0.5625q0.421875 -0.34375 0.828125 -0.765625l0 -2.8125q-1.640625 0.046875 -2.796875 0.265625q-1.140625 0.203125 -1.859375 0.546875q-0.71875 0.328125 -1.046875 0.78125q-0.328125 0.453125 -0.328125 1.0q0 0.53125 0.171875 0.921875q0.1875 0.390625 0.46875 0.640625q0.296875 0.25 0.6875 0.359375q0.40625 0.109375 0.875 0.109375zm9.842789 1.453125l0 -19.625l2.375 0l0 8.0625q0.84375 -0.96875 1.921875 -1.5625q1.09375 -0.59375 2.5 -0.59375q1.171875 0 2.109375 0.453125q0.953125 0.4375 1.609375 1.3125q0.671875 0.859375 1.03125 2.15625q0.359375 1.28125 0.359375 2.953125q0 1.5 -0.40625 2.796875q-0.390625 1.28125 -1.140625 2.21875q-0.75 0.9375 -1.84375 1.484375q-1.078125 0.53125 -2.4375 0.53125q-1.3125 0 -2.234375 -0.5q-0.90625 -0.515625 -1.578125 -1.421875l-0.125 1.234375q-0.109375 0.5 -0.609375 0.5l-1.53125 0zm6.015625 -11.828125q-1.15625 0 -2.03125 0.546875q-0.875 0.53125 -1.609375 1.5l0 6.53125q0.640625 0.875 1.421875 1.234375q0.78125 0.359375 1.75 0.359375q1.890625 0 2.890625 -1.34375q1.015625 -1.34375 1.015625 -3.84375q0 -1.3125 -0.234375 -2.25q-0.234375 -0.953125 -0.671875 -1.5625q-0.4375 -0.609375 -1.078125 -0.890625q-0.640625 -0.28125 -1.453125 -0.28125zm14.150787 -1.890625q1.203125 0 2.234375 0.40625q1.03125 0.40625 1.765625 1.171875q0.75 0.765625 1.171875 1.90625q0.421875 1.125 0.421875 2.5625q0 0.546875 -0.125 0.734375q-0.125 0.1875 -0.453125 0.1875l-8.984375 0q0.03125 1.28125 0.34375 2.234375q0.328125 0.9375 0.890625 1.578125q0.5625 0.625 1.328125 0.953125q0.765625 0.3125 1.734375 0.3125q0.890625 0 1.53125 -0.203125q0.65625 -0.21875 1.125 -0.453125q0.46875 -0.25 0.78125 -0.453125q0.3125 -0.203125 0.53125 -0.203125q0.296875 0 0.453125 0.21875l0.671875 0.875q-0.4375 0.53125 -1.0625 0.921875q-0.609375 0.390625 -1.3125 0.65625q-0.6875 0.25 -1.4375 0.375q-0.75 0.125 -1.484375 0.125q-1.390625 0 -2.578125 -0.46875q-1.171875 -0.484375 -2.03125 -1.390625q-0.859375 -0.90625 -1.34375 -2.25q-0.484375 -1.359375 -0.484375 -3.109375q0 -1.40625 0.4375 -2.625q0.4375 -1.234375 1.25 -2.125q0.8125 -0.90625 1.984375 -1.421875q1.171875 -0.515625 2.640625 -0.515625zm0.046875 1.75q-1.71875 0 -2.703125 1.0q-0.984375 0.984375 -1.234375 2.75l7.34375 0q0 -0.828125 -0.234375 -1.515625q-0.21875 -0.6875 -0.65625 -1.1875q-0.4375 -0.5 -1.078125 -0.765625q-0.625 -0.28125 -1.4375 -0.28125zm11.202194 -7.65625l0 19.625l-2.359375 0l0 -19.625l2.359375 0zm6.8239746 6.125l0 13.5l-2.359375 0l0 -13.5l2.359375 0zm0.546875 -4.234375q0 0.34375 -0.140625 0.640625q-0.140625 0.296875 -0.375 0.53125q-0.234375 0.234375 -0.546875 0.375q-0.296875 0.125 -0.65625 0.125q-0.34375 0 -0.640625 -0.125q-0.296875 -0.140625 -0.53125 -0.375q-0.234375 -0.234375 -0.375 -0.53125q-0.125 -0.296875 -0.125 -0.640625q0 -0.359375 0.125 -0.671875q0.140625 -0.3125 0.375 -0.53125q0.234375 -0.234375 0.53125 -0.375q0.296875 -0.140625 0.640625 -0.140625q0.359375 0 0.65625 0.140625q0.3125 0.140625 0.546875 0.375q0.234375 0.21875 0.375 0.53125q0.140625 0.3125 0.140625 0.671875zm3.6520996 17.734375l0 -13.5l1.40625 0q0.5 0 0.640625 0.484375l0.1875 1.46875q0.875 -0.96875 1.953125 -1.5625q1.09375 -0.609375 2.515625 -0.609375q1.109375 0 1.953125 0.375q0.859375 0.359375 1.421875 1.03125q0.5625 0.671875 0.859375 1.625q0.296875 0.9375 0.296875 2.09375l0 8.59375l-2.375 0l0 -8.59375q0 -1.53125 -0.703125 -2.375q-0.703125 -0.859375 -2.140625 -0.859375q-1.046875 0 -1.96875 0.515625q-0.90625 0.5 -1.6875 1.375l0 9.9375l-2.359375 0zm19.352066 -13.734375q0.890625 0 1.65625 0.203125q0.765625 0.1875 1.390625 0.5625l3.65625 0l0 0.875q0 0.4375 -0.546875 0.5625l-1.53125 0.21875q0.453125 0.859375 0.453125 1.921875q0 1.0 -0.390625 1.8125q-0.375 0.796875 -1.046875 1.375q-0.671875 0.5625 -1.609375 0.875q-0.921875 0.296875 -2.03125 0.296875q-0.9375 0 -1.78125 -0.21875q-0.421875 0.265625 -0.640625 0.578125q-0.21875 0.296875 -0.21875 0.59375q0 0.484375 0.375 0.734375q0.390625 0.234375 1.03125 0.34375q0.640625 0.109375 1.453125 0.140625q0.8125 0.015625 1.65625 0.078125q0.84375 0.0625 1.65625 0.21875q0.8125 0.140625 1.453125 0.46875q0.640625 0.328125 1.03125 0.921875q0.390625 0.578125 0.390625 1.515625q0 0.875 -0.4375 1.6875q-0.4375 0.8125 -1.25 1.4375q-0.8125 0.640625 -1.984375 1.015625q-1.171875 0.375 -2.640625 0.375q-1.484375 0 -2.609375 -0.296875q-1.109375 -0.28125 -1.84375 -0.78125q-0.71875 -0.484375 -1.09375 -1.140625q-0.359375 -0.640625 -0.359375 -1.34375q0 -1.0 0.625 -1.703125q0.640625 -0.703125 1.734375 -1.109375q-0.5625 -0.265625 -0.90625 -0.703125q-0.34375 -0.453125 -0.34375 -1.203125q0 -0.296875 0.109375 -0.609375q0.109375 -0.3125 0.328125 -0.609375q0.21875 -0.3125 0.53125 -0.59375q0.328125 -0.28125 0.75 -0.5q-1.0 -0.5625 -1.5625 -1.484375q-0.5625 -0.921875 -0.5625 -2.171875q0 -0.984375 0.375 -1.78125q0.375 -0.8125 1.046875 -1.375q0.6875 -0.5625 1.625 -0.875q0.953125 -0.3125 2.0625 -0.3125zm4.21875 14.46875q0 -0.5 -0.28125 -0.8125q-0.28125 -0.3125 -0.765625 -0.46875q-0.46875 -0.171875 -1.09375 -0.25q-0.625 -0.078125 -1.328125 -0.109375q-0.6875 -0.046875 -1.40625 -0.078125q-0.71875 -0.046875 -1.375 -0.15625q-0.765625 0.375 -1.234375 0.890625q-0.46875 0.515625 -0.46875 1.234375q0 0.453125 0.234375 0.84375q0.234375 0.390625 0.703125 0.671875q0.484375 0.296875 1.203125 0.453125q0.734375 0.171875 1.71875 0.171875q0.96875 0 1.71875 -0.171875q0.765625 -0.171875 1.28125 -0.5q0.53125 -0.3125 0.8125 -0.75q0.28125 -0.4375 0.28125 -0.96875zm-4.21875 -7.328125q0.71875 0 1.265625 -0.203125q0.5625 -0.203125 0.9375 -0.5625q0.375 -0.359375 0.5625 -0.859375q0.1875 -0.5 0.1875 -1.09375q0 -1.25 -0.75 -1.96875q-0.75 -0.734375 -2.203125 -0.734375q-1.421875 0 -2.171875 0.734375q-0.75 0.71875 -0.75 1.96875q0 0.59375 0.1875 1.09375q0.1875 0.5 0.5625 0.859375q0.375 0.359375 0.921875 0.5625q0.546875 0.203125 1.25 0.203125zm8.308792 5.125q0 -0.34375 0.125 -0.640625q0.125 -0.3125 0.34375 -0.53125q0.21875 -0.234375 0.53125 -0.359375q0.3125 -0.140625 0.65625 -0.140625q0.34375 0 0.640625 0.140625q0.3125 0.125 0.53125 0.359375q0.234375 0.21875 0.359375 0.53125q0.125 0.296875 0.125 0.640625q0 0.359375 -0.125 0.671875q-0.125 0.296875 -0.359375 0.53125q-0.21875 0.21875 -0.53125 0.34375q-0.296875 0.125 -0.640625 0.125q-0.34375 0 -0.65625 -0.125q-0.3125 -0.125 -0.53125 -0.34375q-0.21875 -0.234375 -0.34375 -0.53125q-0.125 -0.3125 -0.125 -0.671875z" fill-rule="nonzero"/></g></svg>